<svg xmlns="http://www.w3.org/2000/svg" xmlns:xlink="http://www.w3.org/1999/xlink" width="500" zoomAndPan="magnify" viewBox="0 0 375 374.999991" height="500" preserveAspectRatio="xMidYMid meet" version="1.0"><defs><clipPath id="6a9b1fa95c"><path d="M 59.003906 178.957031 L 76.253906 178.957031 L 76.253906 196.207031 L 59.003906 196.207031 Z M 59.003906 178.957031 " clip-rule="nonzero"/></clipPath></defs><g clip-path="url(#6a9b1fa95c)"><path fill="#ffce00" d="M 67.542969 178.957031 C 72.257812 178.957031 76.078125 182.78125 76.078125 187.496094 C 76.078125 192.210938 72.257812 196.03125 67.542969 196.03125 C 62.828125 196.03125 59.003906 192.210938 59.003906 187.496094 C 59.003906 182.78125 62.828125 178.957031 67.542969 178.957031 Z M 67.542969 178.957031 " fill-opacity="1" fill-rule="evenodd"/></g><path fill="#ffbe0d" d="M 85.003906 193.632812 C 84.046875 194.5625 83.613281 195.898438 83.839844 197.21875 L 85.980469 209.71875 C 86.550781 213.027344 83.078125 215.542969 80.109375 213.980469 L 68.882812 208.074219 C 67.703125 207.457031 66.292969 207.457031 65.109375 208.074219 L 53.882812 213.980469 C 51.210938 215.390625 48.128906 213.492188 47.964844 210.683594 C 47.933594 210.375 47.957031 210.050781 48.011719 209.71875 L 50.15625 197.21875 C 50.378906 195.898438 49.941406 194.5625 48.992188 193.632812 L 39.90625 184.777344 C 37.5 182.433594 38.832031 178.355469 42.152344 177.871094 L 54.703125 176.050781 C 56.023438 175.855469 57.160156 175.03125 57.746094 173.839844 L 63.367188 162.457031 C 64.851562 159.449219 69.132812 159.449219 70.625 162.457031 L 76.238281 173.839844 C 76.828125 175.03125 77.964844 175.855469 79.28125 176.050781 L 91.84375 177.871094 C 92.160156 177.917969 92.460938 178 92.738281 178.105469 C 95.386719 179.117188 96.257812 182.652344 94.082031 184.777344 Z M 85.003906 193.632812 " fill-opacity="1" fill-rule="nonzero"/><path fill="#ffbe0d" d="M 187.617188 162.972656 C 187.855469 162.972656 188.445312 163.042969 188.761719 163.683594 L 194.378906 175.070312 C 195.371094 177.074219 197.285156 178.46875 199.507812 178.796875 L 212.050781 180.613281 C 212.195312 180.636719 212.285156 180.664062 212.332031 180.683594 C 212.347656 180.6875 212.359375 180.695312 212.371094 180.699219 C 212.761719 180.847656 213.046875 181.195312 213.136719 181.628906 C 213.203125 181.9375 213.1875 182.382812 212.769531 182.792969 L 203.695312 191.644531 C 202.078125 193.214844 201.34375 195.472656 201.726562 197.6875 L 203.871094 210.191406 C 203.9375 210.582031 203.847656 210.925781 203.609375 211.210938 C 203.355469 211.511719 202.988281 211.6875 202.617188 211.6875 C 202.421875 211.6875 202.222656 211.636719 202.027344 211.53125 L 190.792969 205.625 C 189.820312 205.117188 188.722656 204.84375 187.621094 204.84375 C 186.523438 204.84375 185.425781 205.117188 184.449219 205.628906 L 173.214844 211.535156 C 173.019531 211.640625 172.820312 211.691406 172.621094 211.691406 C 172.046875 211.691406 171.398438 211.222656 171.355469 210.523438 C 171.355469 210.496094 171.351562 210.472656 171.347656 210.441406 C 171.34375 210.417969 171.34375 210.335938 171.367188 210.191406 L 173.515625 197.679688 C 173.890625 195.472656 173.15625 193.214844 171.554688 191.648438 L 162.464844 182.792969 C 161.972656 182.3125 162.050781 181.769531 162.140625 181.488281 C 162.210938 181.261719 162.460938 180.71875 163.171875 180.613281 L 175.730469 178.792969 C 177.945312 178.464844 179.859375 177.070312 180.851562 175.066406 L 186.476562 163.679688 C 186.785156 163.066406 187.324219 162.972656 187.617188 162.972656 M 187.617188 160.203125 C 186.175781 160.203125 184.734375 160.953125 183.992188 162.457031 L 178.371094 173.839844 C 177.78125 175.03125 176.644531 175.855469 175.328125 176.050781 L 162.777344 177.871094 C 159.457031 178.355469 158.125 182.433594 160.53125 184.777344 L 169.617188 193.632812 C 170.566406 194.5625 171.003906 195.898438 170.78125 197.21875 L 168.636719 209.71875 C 168.582031 210.050781 168.558594 210.375 168.589844 210.683594 C 168.714844 212.839844 170.5625 214.457031 172.621094 214.457031 C 173.246094 214.457031 173.890625 214.308594 174.511719 213.980469 L 185.738281 208.074219 C 186.328125 207.769531 186.976562 207.613281 187.621094 207.613281 C 188.273438 207.613281 188.917969 207.769531 189.507812 208.074219 L 200.734375 213.980469 C 201.355469 214.304688 202 214.453125 202.617188 214.453125 C 204.976562 214.453125 207.054688 212.332031 206.605469 209.714844 L 204.460938 197.214844 C 204.234375 195.898438 204.671875 194.558594 205.628906 193.628906 L 214.707031 184.777344 C 216.882812 182.652344 216.007812 179.121094 213.359375 178.105469 C 213.082031 177.996094 212.789062 177.917969 212.464844 177.871094 L 199.90625 176.050781 C 198.589844 175.855469 197.453125 175.03125 196.863281 173.839844 L 191.25 162.457031 C 190.503906 160.953125 189.0625 160.203125 187.617188 160.203125 Z M 187.617188 160.203125 " fill-opacity="1" fill-rule="nonzero"/><path fill="#ffbe0d" d="M 247.933594 162.972656 C 248.171875 162.972656 248.757812 163.042969 249.078125 163.683594 L 254.691406 175.070312 C 255.683594 177.074219 257.601562 178.46875 259.824219 178.796875 L 272.367188 180.613281 C 272.507812 180.636719 272.601562 180.664062 272.648438 180.683594 C 272.660156 180.6875 272.671875 180.695312 272.6875 180.699219 C 273.074219 180.847656 273.359375 181.195312 273.453125 181.628906 C 273.515625 181.9375 273.5 182.382812 273.082031 182.792969 L 264.007812 191.644531 C 262.390625 193.214844 261.660156 195.472656 262.042969 197.6875 L 264.183594 210.191406 C 264.253906 210.582031 264.164062 210.925781 263.921875 211.210938 C 263.667969 211.511719 263.300781 211.6875 262.933594 211.6875 C 262.734375 211.6875 262.535156 211.636719 262.335938 211.53125 L 251.105469 205.625 C 250.128906 205.117188 249.035156 204.84375 247.933594 204.84375 C 246.832031 204.84375 245.734375 205.117188 244.757812 205.628906 L 233.523438 211.535156 C 233.328125 211.640625 233.132812 211.691406 232.933594 211.691406 C 232.355469 211.691406 231.710938 211.222656 231.667969 210.523438 C 231.667969 210.496094 231.664062 210.472656 231.660156 210.441406 C 231.65625 210.417969 231.65625 210.335938 231.675781 210.191406 L 233.828125 197.679688 C 234.199219 195.472656 233.46875 193.214844 231.863281 191.648438 L 222.777344 182.792969 C 222.28125 182.3125 222.359375 181.769531 222.449219 181.488281 C 222.523438 181.261719 222.773438 180.71875 223.484375 180.613281 L 236.039062 178.792969 C 238.253906 178.464844 240.171875 177.070312 241.164062 175.066406 L 246.785156 163.679688 C 247.097656 163.066406 247.636719 162.972656 247.933594 162.972656 M 247.933594 160.203125 C 246.488281 160.203125 245.050781 160.953125 244.304688 162.457031 L 238.683594 173.839844 C 238.097656 175.03125 236.960938 175.855469 235.644531 176.050781 L 223.089844 177.871094 C 219.769531 178.355469 218.4375 182.433594 220.84375 184.777344 L 229.929688 193.632812 C 230.878906 194.5625 231.316406 195.898438 231.097656 197.21875 L 228.949219 209.71875 C 228.894531 210.050781 228.875 210.375 228.902344 210.683594 C 229.027344 212.839844 230.875 214.457031 232.9375 214.457031 C 233.5625 214.457031 234.203125 214.308594 234.824219 213.980469 L 246.054688 208.074219 C 246.640625 207.769531 247.289062 207.613281 247.9375 207.613281 C 248.585938 207.613281 249.230469 207.769531 249.820312 208.074219 L 261.050781 213.980469 C 261.671875 214.304688 262.3125 214.453125 262.933594 214.453125 C 265.289062 214.453125 267.367188 212.332031 266.921875 209.714844 L 264.777344 197.214844 C 264.550781 195.898438 264.984375 194.558594 265.941406 193.628906 L 275.015625 184.777344 C 277.191406 182.652344 276.320312 179.121094 273.671875 178.105469 C 273.394531 177.996094 273.097656 177.917969 272.777344 177.871094 L 260.214844 176.050781 C 258.898438 175.855469 257.761719 175.03125 257.175781 173.839844 L 251.558594 162.457031 C 250.816406 160.953125 249.371094 160.203125 247.933594 160.203125 Z M 247.933594 160.203125 " fill-opacity="1" fill-rule="nonzero"/><path fill="#ffbe0d" d="M 308.242188 162.972656 C 308.480469 162.972656 309.070312 163.042969 309.386719 163.683594 L 315 175.070312 C 315.992188 177.074219 317.910156 178.46875 320.132812 178.796875 L 332.675781 180.613281 C 332.820312 180.636719 332.910156 180.664062 332.957031 180.683594 C 332.972656 180.6875 332.980469 180.695312 332.996094 180.699219 C 333.386719 180.847656 333.671875 181.195312 333.761719 181.628906 C 333.828125 181.9375 333.8125 182.382812 333.394531 182.792969 L 324.320312 191.644531 C 322.703125 193.214844 321.96875 195.472656 322.351562 197.6875 L 324.496094 210.191406 C 324.5625 210.582031 324.472656 210.925781 324.230469 211.210938 C 323.980469 211.511719 323.613281 211.6875 323.242188 211.6875 C 323.042969 211.6875 322.847656 211.636719 322.648438 211.53125 L 311.414062 205.625 C 310.441406 205.117188 309.34375 204.84375 308.242188 204.84375 C 307.144531 204.84375 306.046875 205.117188 305.066406 205.628906 L 293.835938 211.535156 C 293.640625 211.640625 293.441406 211.691406 293.242188 211.691406 C 292.664062 211.691406 292.019531 211.222656 291.976562 210.523438 C 291.976562 210.496094 291.972656 210.472656 291.96875 210.441406 C 291.964844 210.417969 291.964844 210.335938 291.988281 210.191406 L 294.136719 197.679688 C 294.511719 195.472656 293.777344 193.214844 292.175781 191.648438 L 283.085938 182.792969 C 282.589844 182.3125 282.671875 181.769531 282.761719 181.488281 C 282.832031 181.261719 283.082031 180.71875 283.792969 180.613281 L 296.351562 178.792969 C 298.566406 178.464844 300.480469 177.070312 301.472656 175.066406 L 307.097656 163.679688 C 307.410156 163.066406 307.949219 162.972656 308.242188 162.972656 M 308.242188 160.203125 C 306.800781 160.203125 305.359375 160.953125 304.617188 162.457031 L 298.996094 173.839844 C 298.40625 175.03125 297.269531 175.855469 295.953125 176.050781 L 283.398438 177.871094 C 280.078125 178.355469 278.75 182.433594 281.15625 184.777344 L 290.242188 193.632812 C 291.191406 194.5625 291.625 195.898438 291.40625 197.21875 L 289.257812 209.71875 C 289.207031 210.050781 289.183594 210.375 289.210938 210.683594 C 289.339844 212.839844 291.1875 214.457031 293.246094 214.457031 C 293.871094 214.457031 294.511719 214.308594 295.132812 213.980469 L 306.363281 208.074219 C 306.953125 207.769531 307.601562 207.613281 308.246094 207.613281 C 308.894531 207.613281 309.542969 207.769531 310.128906 208.074219 L 321.359375 213.980469 C 321.980469 214.304688 322.621094 214.453125 323.242188 214.453125 C 325.597656 214.453125 327.679688 212.332031 327.230469 209.714844 L 325.085938 197.214844 C 324.859375 195.898438 325.296875 194.558594 326.253906 193.628906 L 335.332031 184.777344 C 337.507812 182.652344 336.632812 179.121094 333.984375 178.105469 C 333.707031 177.996094 333.410156 177.917969 333.089844 177.871094 L 320.53125 176.050781 C 319.210938 175.855469 318.074219 175.03125 317.488281 173.839844 L 311.875 162.457031 C 311.128906 160.953125 309.6875 160.203125 308.242188 160.203125 Z M 308.242188 160.203125 " fill-opacity="1" fill-rule="nonzero"/><path fill="#ffbe0d" d="M 127.308594 162.976562 C 127.546875 162.976562 128.136719 163.046875 128.453125 163.6875 L 134.066406 175.074219 C 135.058594 177.078125 136.976562 178.472656 139.199219 178.800781 L 151.742188 180.617188 C 151.886719 180.640625 151.976562 180.667969 152.023438 180.6875 C 152.035156 180.691406 152.046875 180.699219 152.0625 180.703125 C 152.453125 180.851562 152.738281 181.199219 152.828125 181.632812 C 152.890625 181.941406 152.878906 182.386719 152.460938 182.792969 L 143.382812 191.648438 C 141.765625 193.21875 141.035156 195.476562 141.417969 197.691406 L 143.5625 210.195312 C 143.625 210.585938 143.539062 210.929688 143.296875 211.214844 C 143.042969 211.515625 142.675781 211.691406 142.308594 211.691406 C 142.109375 211.691406 141.910156 211.640625 141.71875 211.535156 L 130.484375 205.628906 C 129.511719 205.121094 128.414062 204.847656 127.3125 204.847656 C 126.210938 204.847656 125.113281 205.121094 124.136719 205.632812 L 112.902344 211.539062 C 112.710938 211.644531 112.511719 211.695312 112.3125 211.695312 C 111.734375 211.695312 111.089844 211.226562 111.046875 210.527344 C 111.046875 210.5 111.042969 210.472656 111.039062 210.445312 C 111.035156 210.421875 111.035156 210.339844 111.054688 210.195312 L 113.207031 197.683594 C 113.578125 195.472656 112.847656 193.21875 111.246094 191.652344 L 102.15625 182.792969 C 101.660156 182.316406 101.738281 181.773438 101.828125 181.492188 C 101.902344 181.265625 102.152344 180.722656 102.863281 180.617188 L 115.417969 178.796875 C 117.632812 178.46875 119.550781 177.074219 120.542969 175.070312 L 126.164062 163.683594 C 126.472656 163.070312 127.011719 162.976562 127.308594 162.976562 M 127.308594 160.207031 C 125.867188 160.207031 124.425781 160.957031 123.683594 162.460938 L 118.058594 173.84375 C 117.472656 175.03125 116.335938 175.859375 115.019531 176.054688 L 102.464844 177.875 C 99.144531 178.359375 97.8125 182.4375 100.222656 184.777344 L 109.304688 193.636719 C 110.253906 194.566406 110.691406 195.902344 110.472656 197.222656 L 108.324219 209.722656 C 108.269531 210.054688 108.25 210.378906 108.277344 210.6875 C 108.40625 212.839844 110.253906 214.460938 112.3125 214.460938 C 112.9375 214.460938 113.578125 214.3125 114.199219 213.984375 L 125.429688 208.078125 C 126.015625 207.773438 126.667969 207.617188 127.3125 207.617188 C 127.960938 207.617188 128.609375 207.773438 129.195312 208.078125 L 140.425781 213.984375 C 141.046875 214.308594 141.6875 214.457031 142.308594 214.457031 C 144.664062 214.457031 146.742188 212.335938 146.296875 209.71875 L 144.152344 197.21875 C 143.925781 195.898438 144.363281 194.5625 145.316406 193.632812 L 154.398438 184.777344 C 156.574219 182.652344 155.699219 179.121094 153.050781 178.105469 C 152.773438 177.996094 152.476562 177.917969 152.15625 177.871094 L 139.59375 176.050781 C 138.277344 175.855469 137.140625 175.03125 136.554688 173.839844 L 130.9375 162.457031 C 130.195312 160.957031 128.753906 160.207031 127.308594 160.207031 Z M 127.308594 160.207031 " fill-opacity="1" fill-rule="nonzero"/><path fill="#ffbe0d" d="M 127.308594 160.199219 L 127.308594 207.617188 C 126.65625 207.617188 126.011719 207.777344 125.421875 208.082031 L 114.191406 213.988281 C 111.523438 215.394531 108.441406 213.5 108.273438 210.691406 C 108.246094 210.378906 108.265625 210.058594 108.320312 209.726562 L 110.46875 197.222656 C 110.6875 195.90625 110.253906 194.570312 109.304688 193.640625 L 100.21875 184.78125 C 97.808594 182.441406 99.140625 178.363281 102.460938 177.878906 L 115.015625 176.058594 C 116.332031 175.863281 117.46875 175.039062 118.058594 173.847656 L 123.679688 162.464844 C 124.425781 160.953125 125.867188 160.199219 127.308594 160.199219 Z M 127.308594 160.199219 " fill-opacity="1" fill-rule="nonzero"/><path fill="#ffce00" d="M 92.742188 178.109375 C 82.800781 194.164062 66.816406 206.085938 47.964844 210.6875 C 47.933594 210.378906 47.957031 210.054688 48.011719 209.722656 L 50.15625 197.222656 C 50.378906 195.902344 49.941406 194.566406 48.992188 193.636719 L 39.90625 184.777344 C 37.5 182.433594 38.832031 178.355469 42.152344 177.871094 L 54.703125 176.050781 C 56.023438 175.855469 57.160156 175.03125 57.746094 173.839844 L 63.367188 162.457031 C 64.851562 159.449219 69.132812 159.449219 70.625 162.457031 L 76.238281 173.839844 C 76.828125 175.03125 77.964844 175.855469 79.28125 176.050781 L 91.84375 177.871094 C 92.164062 177.921875 92.460938 178 92.742188 178.109375 Z M 92.742188 178.109375 " fill-opacity="1" fill-rule="nonzero"/><path fill="#ffce00" d="M 127.308594 160.199219 L 127.308594 203.046875 C 121.429688 206.445312 115.039062 209.039062 108.273438 210.6875 C 108.246094 210.378906 108.265625 210.054688 108.320312 209.722656 L 110.46875 197.222656 C 110.6875 195.902344 110.253906 194.566406 109.304688 193.636719 L 100.21875 184.777344 C 97.808594 182.4375 99.140625 178.359375 102.460938 177.875 L 115.015625 176.054688 C 116.332031 175.859375 117.46875 175.035156 118.058594 173.84375 L 123.679688 162.460938 C 124.425781 160.953125 125.867188 160.199219 127.308594 160.199219 Z M 127.308594 160.199219 " fill-opacity="1" fill-rule="nonzero"/></svg>