<svg xmlns="http://www.w3.org/2000/svg" xmlns:xlink="http://www.w3.org/1999/xlink" width="500" zoomAndPan="magnify" viewBox="0 0 375 374.999991" height="500" preserveAspectRatio="xMidYMid meet" version="1.0"><defs><clipPath id="2cead4c4b3"><path d="M 37.5 159.1875 L 119 159.1875 L 119 216.1875 L 37.5 216.1875 Z M 37.5 159.1875 " clip-rule="nonzero"/></clipPath><clipPath id="2f2930ffe9"><path d="M 197 159.1875 L 298 159.1875 L 298 216.1875 L 197 216.1875 Z M 197 159.1875 " clip-rule="nonzero"/></clipPath><clipPath id="5c3f86db5c"><path d="M 137 159.1875 L 238 159.1875 L 238 216.1875 L 137 216.1875 Z M 137 159.1875 " clip-rule="nonzero"/></clipPath><clipPath id="be072d5a78"><path d="M 77 159.1875 L 178 159.1875 L 178 216.1875 L 77 216.1875 Z M 77 159.1875 " clip-rule="nonzero"/></clipPath><clipPath id="1a2ae23b30"><path d="M 257 159.1875 L 337.5 159.1875 L 337.5 216.1875 L 257 216.1875 Z M 257 159.1875 " clip-rule="nonzero"/></clipPath><clipPath id="0ae26c7aa0"><path d="M 59.621094 178.957031 L 76.871094 178.957031 L 76.871094 196.207031 L 59.621094 196.207031 Z M 59.621094 178.957031 " clip-rule="nonzero"/></clipPath></defs><path fill="#ffce00" d="M 70.59375 162.007812 L 76.972656 175.003906 C 77.4375 175.941406 78.21875 176.570312 79.304688 176.726562 L 93.617188 178.761719 C 96.105469 179.074219 97.039062 182.207031 95.328125 183.929688 L 85.0625 194.109375 C 84.285156 194.734375 83.972656 195.832031 84.128906 196.769531 L 86.617188 211.019531 C 87.082031 213.527344 84.4375 215.40625 82.261719 214.308594 L 69.503906 207.574219 C 68.570312 207.105469 67.484375 207.105469 66.707031 207.574219 L 53.949219 214.308594 C 51.769531 215.5625 49.125 213.527344 49.59375 211.019531 L 52.082031 196.769531 C 52.238281 195.832031 51.925781 194.734375 51.148438 194.109375 L 40.882812 183.929688 C 39.015625 182.207031 40.105469 179.074219 42.59375 178.761719 L 56.90625 176.726562 C 57.839844 176.570312 58.769531 175.941406 59.238281 175.003906 L 65.617188 162.007812 C 66.238281 159.8125 69.503906 159.8125 70.59375 162.007812 Z M 70.59375 162.007812 " fill-opacity="1" fill-rule="nonzero"/><g clip-path="url(#2cead4c4b3)"><path stroke-linecap="butt" transform="matrix(1.555632, 0, 0, 1.565934, 31.859039, 30.937498)" fill="none" stroke-linejoin="miter" d="M 24.899665 83.701047 L 29.000189 92.000307 C 29.299003 92.598991 29.80121 93.000609 30.499279 93.100389 L 39.699721 94.400033 C 41.299252 94.599595 41.89939 96.600198 40.799555 97.70028 L 34.200548 104.200993 C 33.700852 104.600116 33.499969 105.301075 33.60041 105.89976 L 35.199941 114.99976 C 35.498755 116.60124 33.798782 117.801103 32.400134 117.100144 L 24.199085 112.799595 C 23.598947 112.500253 22.900879 112.500253 22.401183 112.799595 L 14.200134 117.100144 C 12.798975 117.900884 11.099002 116.60124 11.400327 114.99976 L 12.999858 105.89976 C 13.100299 105.301075 12.899416 104.600116 12.39972 104.200993 L 5.800713 97.70028 C 4.600437 96.600198 5.301016 94.599595 6.900547 94.400033 L 16.100989 93.100389 C 16.701127 93.000609 17.298754 92.598991 17.600079 92.000307 L 21.700603 83.701047 C 22.099858 82.299128 24.199085 82.299128 24.899665 83.701047 Z M 24.899665 83.701047 " stroke="#ffbe0d" stroke-width="1" stroke-opacity="1" stroke-miterlimit="10"/></g><g clip-path="url(#2f2930ffe9)"><path stroke-linecap="butt" transform="matrix(1.555632, 0, 0, 1.565934, 31.859039, 30.937498)" fill="none" stroke-linejoin="miter" d="M 140.19898 83.701047 L 144.299505 92.000307 C 144.600829 92.598991 145.100526 93.000609 145.801105 93.100389 L 154.999036 94.400033 C 156.601078 94.599595 157.201216 96.600198 156.09887 97.70028 L 149.499863 104.200993 C 149.000167 104.600116 148.799284 105.301075 148.899725 105.89976 L 150.499256 114.99976 C 150.800581 116.60124 149.100608 117.801103 147.699449 117.100144 L 139.500912 112.799595 C 138.900774 112.500253 138.200194 112.500253 137.700498 112.799595 L 129.499449 117.100144 C 128.100801 117.900884 126.400828 116.60124 126.699642 114.99976 L 128.299173 105.89976 C 128.399614 105.301075 128.201242 104.600116 127.699035 104.200993 L 121.100028 97.70028 C 119.899752 96.600198 120.600331 94.599595 122.199862 94.400033 L 131.400304 93.100389 C 132.000442 93.000609 132.60058 92.598991 132.899394 92.000307 L 136.999918 83.701047 C 137.399173 82.299128 139.500912 82.299128 140.19898 83.701047 Z M 140.19898 83.701047 " stroke="#ffbe0d" stroke-width="1" stroke-opacity="1" stroke-miterlimit="10"/></g><g clip-path="url(#5c3f86db5c)"><path stroke-linecap="butt" transform="matrix(1.555632, 0, 0, 1.565934, 31.859039, 30.937498)" fill="none" stroke-linejoin="miter" d="M 101.800193 83.701047 L 105.900717 92.000307 C 106.19953 92.598991 106.699227 93.000609 107.399806 93.100389 L 116.600248 94.400033 C 118.199779 94.599595 118.799917 96.600198 117.700083 97.70028 L 111.101076 104.200993 C 110.598868 104.600116 110.400496 105.301075 110.500938 105.89976 L 112.100469 114.99976 C 112.399282 116.60124 110.69931 117.801103 109.300662 117.100144 L 101.099613 112.799595 C 100.499475 112.500253 99.798896 112.500253 99.299199 112.799595 L 91.100661 117.100144 C 89.699502 117.900884 87.99953 116.60124 88.300854 114.99976 L 89.900385 105.89976 C 90.000827 105.301075 89.799944 104.600116 89.300247 104.200993 L 82.70124 97.70028 C 81.500964 96.600198 82.199033 94.599595 83.801075 94.400033 L 92.999006 93.100389 C 93.599144 93.000609 94.199282 92.598991 94.500606 92.000307 L 98.601131 83.701047 C 99.000386 82.299128 100.999172 82.299128 101.800193 83.701047 Z M 101.800193 83.701047 " stroke="#ffbe0d" stroke-width="1" stroke-opacity="1" stroke-miterlimit="10"/></g><g clip-path="url(#be072d5a78)"><path stroke-linecap="butt" transform="matrix(1.555632, 0, 0, 1.565934, 31.859039, 30.937498)" fill="none" stroke-linejoin="miter" d="M 63.300964 83.701047 L 67.398977 92.000307 C 67.700301 92.598991 68.199998 93.000609 68.900577 93.100389 L 78.101019 94.400033 C 79.70055 94.599595 80.300688 96.600198 79.200854 97.70028 L 72.599336 104.200993 C 72.099639 104.600116 71.898756 105.301075 71.999198 105.89976 L 73.60124 114.99976 C 73.900053 116.60124 72.200081 117.801103 70.798922 117.100144 L 62.600384 112.799595 C 62.000246 112.500253 61.299667 112.500253 60.79997 112.799595 L 52.598921 117.100144 C 51.200273 117.900884 49.500301 116.60124 49.799114 114.99976 L 51.401156 105.89976 C 51.499087 105.301075 51.300715 104.600116 50.801018 104.200993 L 44.001128 97.800061 C 42.800852 96.699978 43.498921 94.699375 45.100963 94.499814 L 54.298894 93.20017 C 54.899032 93.100389 55.49917 92.698772 55.800494 92.100088 L 59.901019 83.800828 C 60.501157 82.299128 62.600384 82.299128 63.300964 83.701047 Z M 63.300964 83.701047 " stroke="#ffbe0d" stroke-width="1" stroke-opacity="1" stroke-miterlimit="10"/></g><g clip-path="url(#1a2ae23b30)"><path stroke-linecap="butt" transform="matrix(1.555632, 0, 0, 1.565934, 31.859039, 30.937498)" fill="none" stroke-linejoin="miter" d="M 178.600279 83.701047 L 182.700803 92.000307 C 182.999617 92.598991 183.499313 93.000609 184.199893 93.100389 L 193.400334 94.400033 C 194.999865 94.599595 195.600003 96.600198 194.500169 97.70028 L 187.901162 104.200993 C 187.398954 104.600116 187.200583 105.301075 187.301024 105.89976 L 188.900555 114.99976 C 189.199368 116.60124 187.499396 117.801103 186.100748 117.100144 L 177.899699 112.799595 C 177.299561 112.500253 176.598982 112.500253 176.099285 112.799595 L 167.900747 117.100144 C 166.499588 117.900884 164.799616 116.60124 165.10094 114.99976 L 166.700471 105.89976 C 166.800913 105.301075 166.60003 104.600116 166.100333 104.200993 L 159.498815 97.70028 C 158.30105 96.600198 158.999119 94.599595 160.601161 94.400033 L 169.799092 93.100389 C 170.39923 93.000609 170.999368 92.598991 171.300692 92.000307 L 175.401217 83.701047 C 175.800472 82.299128 177.899699 82.299128 178.600279 83.701047 Z M 178.600279 83.701047 " stroke="#ffbe0d" stroke-width="1" stroke-opacity="1" stroke-miterlimit="10"/></g><g clip-path="url(#0ae26c7aa0)"><path fill="#ffce00" d="M 68.160156 178.957031 C 72.875 178.957031 76.695312 182.78125 76.695312 187.496094 C 76.695312 192.210938 72.875 196.03125 68.160156 196.03125 C 63.445312 196.03125 59.621094 192.210938 59.621094 187.496094 C 59.621094 182.78125 63.445312 178.957031 68.160156 178.957031 Z M 68.160156 178.957031 " fill-opacity="1" fill-rule="evenodd"/></g></svg>