<svg xmlns="http://www.w3.org/2000/svg" xmlns:xlink="http://www.w3.org/1999/xlink" width="500" zoomAndPan="magnify" viewBox="0 0 375 374.999991" height="500" preserveAspectRatio="xMidYMid meet" version="1.0"><defs><clipPath id="1d12f33ef0"><path d="M 59.003906 178.957031 L 76.253906 178.957031 L 76.253906 196.207031 L 59.003906 196.207031 Z M 59.003906 178.957031 " clip-rule="nonzero"/></clipPath></defs><g clip-path="url(#1d12f33ef0)"><path fill="#ffce00" d="M 67.542969 178.957031 C 72.257812 178.957031 76.078125 182.78125 76.078125 187.496094 C 76.078125 192.210938 72.257812 196.03125 67.542969 196.03125 C 62.828125 196.03125 59.003906 192.210938 59.003906 187.496094 C 59.003906 182.78125 62.828125 178.957031 67.542969 178.957031 Z M 67.542969 178.957031 " fill-opacity="1" fill-rule="evenodd"/></g><path fill="#ffbe0d" d="M 84.988281 193.558594 C 84.035156 194.484375 83.597656 195.824219 83.824219 197.140625 L 85.96875 209.644531 C 86.539062 212.949219 83.0625 215.46875 80.097656 213.90625 L 68.867188 207.996094 C 67.6875 207.378906 66.277344 207.378906 65.097656 207.996094 L 53.867188 213.90625 C 51.199219 215.3125 48.117188 213.414062 47.949219 210.605469 C 47.921875 210.296875 47.941406 209.976562 47.996094 209.644531 L 50.144531 197.140625 C 50.363281 195.824219 49.925781 194.484375 48.976562 193.558594 L 39.890625 184.699219 C 37.484375 182.355469 38.816406 178.28125 42.136719 177.796875 L 54.691406 175.972656 C 56.007812 175.777344 57.144531 174.957031 57.730469 173.761719 L 63.355469 162.378906 C 64.835938 159.371094 69.121094 159.371094 70.609375 162.378906 L 76.226562 173.761719 C 76.8125 174.953125 77.949219 175.777344 79.265625 175.972656 L 91.828125 177.796875 C 92.144531 177.84375 92.445312 177.921875 92.722656 178.03125 C 95.371094 179.039062 96.246094 182.578125 94.070312 184.699219 Z M 84.988281 193.558594 " fill-opacity="1" fill-rule="nonzero"/><path fill="#ffbe0d" d="M 145.304688 193.558594 C 144.347656 194.484375 143.910156 195.824219 144.136719 197.140625 L 146.28125 209.644531 C 146.851562 212.949219 143.375 215.46875 140.410156 213.90625 L 129.179688 207.996094 C 128 207.378906 126.589844 207.378906 125.410156 207.996094 L 114.179688 213.90625 C 111.511719 215.3125 108.429688 213.414062 108.265625 210.605469 C 108.234375 210.296875 108.257812 209.976562 108.3125 209.644531 L 110.457031 197.140625 C 110.679688 195.824219 110.242188 194.484375 109.292969 193.558594 L 100.207031 184.699219 C 97.800781 182.355469 99.132812 178.28125 102.449219 177.796875 L 115.003906 175.972656 C 116.320312 175.777344 117.457031 174.957031 118.046875 173.761719 L 123.667969 162.378906 C 125.152344 159.371094 129.433594 159.371094 130.925781 162.378906 L 136.539062 173.761719 C 137.128906 174.953125 138.265625 175.777344 139.582031 175.972656 L 152.140625 177.796875 C 152.460938 177.84375 152.757812 177.921875 153.035156 178.03125 C 155.683594 179.039062 156.558594 182.578125 154.382812 184.699219 Z M 145.304688 193.558594 " fill-opacity="1" fill-rule="nonzero"/><path fill="#ffbe0d" d="M 187.609375 162.898438 C 187.847656 162.898438 188.433594 162.964844 188.753906 163.609375 L 194.367188 174.992188 C 195.359375 177 197.273438 178.390625 199.496094 178.71875 L 212.039062 180.539062 C 212.183594 180.558594 212.273438 180.589844 212.320312 180.605469 C 212.335938 180.609375 212.347656 180.617188 212.363281 180.621094 C 212.75 180.769531 213.035156 181.117188 213.125 181.550781 C 213.191406 181.859375 213.175781 182.304688 212.757812 182.714844 L 203.683594 191.570312 C 202.066406 193.136719 201.335938 195.398438 201.71875 197.609375 L 203.859375 210.117188 C 203.925781 210.503906 203.839844 210.847656 203.597656 211.132812 C 203.34375 211.433594 202.976562 211.609375 202.609375 211.609375 C 202.410156 211.609375 202.210938 211.558594 202.015625 211.453125 L 190.785156 205.546875 C 189.808594 205.039062 188.710938 204.769531 187.613281 204.769531 C 186.511719 204.769531 185.414062 205.039062 184.4375 205.550781 L 173.203125 211.457031 C 173.007812 211.5625 172.808594 211.613281 172.613281 211.613281 C 172.035156 211.613281 171.386719 211.144531 171.34375 210.449219 C 171.34375 210.417969 171.339844 210.394531 171.339844 210.363281 C 171.335938 210.339844 171.335938 210.261719 171.355469 210.117188 L 173.507812 197.601562 C 173.878906 195.394531 173.144531 193.136719 171.542969 191.574219 L 162.453125 182.714844 C 161.960938 182.234375 162.039062 181.691406 162.128906 181.410156 C 162.203125 181.183594 162.449219 180.644531 163.160156 180.539062 L 175.71875 178.714844 C 177.933594 178.386719 179.851562 176.996094 180.84375 174.988281 L 186.464844 163.605469 C 186.769531 162.992188 187.3125 162.898438 187.609375 162.898438 M 187.609375 160.125 C 186.164062 160.125 184.726562 160.875 183.980469 162.378906 L 178.359375 173.761719 C 177.773438 174.953125 176.636719 175.777344 175.316406 175.972656 L 162.765625 177.796875 C 159.445312 178.28125 158.113281 182.355469 160.519531 184.699219 L 169.605469 193.558594 C 170.554688 194.484375 170.992188 195.824219 170.773438 197.140625 L 168.625 209.644531 C 168.570312 209.976562 168.546875 210.296875 168.578125 210.605469 C 168.703125 212.761719 170.550781 214.382812 172.613281 214.382812 C 173.234375 214.382812 173.878906 214.234375 174.5 213.90625 L 185.726562 207.996094 C 186.316406 207.691406 186.964844 207.535156 187.613281 207.535156 C 188.261719 207.535156 188.90625 207.691406 189.496094 207.996094 L 200.726562 213.90625 C 201.34375 214.230469 201.988281 214.378906 202.609375 214.378906 C 204.964844 214.378906 207.042969 212.253906 206.59375 209.640625 L 204.453125 197.136719 C 204.226562 195.820312 204.660156 194.480469 205.617188 193.554688 L 214.695312 184.695312 C 216.871094 182.574219 216 179.039062 213.351562 178.027344 C 213.074219 177.914062 212.777344 177.839844 212.457031 177.792969 L 199.894531 175.96875 C 198.578125 175.773438 197.441406 174.953125 196.851562 173.757812 L 191.238281 162.378906 C 190.496094 160.875 189.050781 160.125 187.609375 160.125 Z M 187.609375 160.125 " fill-opacity="1" fill-rule="nonzero"/><path fill="#ffbe0d" d="M 247.917969 162.898438 C 248.15625 162.898438 248.746094 162.964844 249.0625 163.609375 L 254.675781 174.992188 C 255.667969 177 257.585938 178.390625 259.808594 178.71875 L 272.351562 180.539062 C 272.496094 180.558594 272.585938 180.589844 272.632812 180.605469 C 272.648438 180.609375 272.65625 180.617188 272.671875 180.621094 C 273.0625 180.769531 273.347656 181.117188 273.4375 181.550781 C 273.5 181.859375 273.488281 182.304688 273.070312 182.714844 L 263.992188 191.570312 C 262.378906 193.136719 261.644531 195.398438 262.027344 197.609375 L 264.171875 210.117188 C 264.238281 210.503906 264.148438 210.847656 263.90625 211.132812 C 263.65625 211.433594 263.285156 211.609375 262.917969 211.609375 C 262.71875 211.609375 262.523438 211.558594 262.324219 211.453125 L 251.089844 205.546875 C 250.117188 205.039062 249.019531 204.769531 247.917969 204.769531 C 246.816406 204.769531 245.722656 205.039062 244.742188 205.550781 L 233.511719 211.457031 C 233.316406 211.5625 233.117188 211.613281 232.917969 211.613281 C 232.339844 211.613281 231.695312 211.144531 231.652344 210.449219 C 231.652344 210.417969 231.648438 210.394531 231.644531 210.363281 C 231.640625 210.339844 231.640625 210.261719 231.664062 210.117188 L 233.8125 197.601562 C 234.183594 195.394531 233.453125 193.136719 231.851562 191.574219 L 222.761719 182.714844 C 222.265625 182.234375 222.347656 181.691406 222.4375 181.410156 C 222.507812 181.183594 222.757812 180.644531 223.46875 180.539062 L 236.023438 178.714844 C 238.242188 178.386719 240.15625 176.996094 241.148438 174.988281 L 246.769531 163.605469 C 247.085938 162.992188 247.621094 162.898438 247.917969 162.898438 M 247.917969 160.125 C 246.476562 160.125 245.035156 160.875 244.292969 162.378906 L 238.671875 173.761719 C 238.082031 174.953125 236.945312 175.777344 235.628906 175.972656 L 223.074219 177.796875 C 219.753906 178.28125 218.421875 182.355469 220.832031 184.699219 L 229.917969 193.558594 C 230.867188 194.484375 231.300781 195.824219 231.082031 197.140625 L 228.933594 209.644531 C 228.878906 209.976562 228.859375 210.296875 228.886719 210.605469 C 229.015625 212.761719 230.863281 214.382812 232.921875 214.382812 C 233.546875 214.382812 234.1875 214.234375 234.808594 213.90625 L 246.039062 207.996094 C 246.625 207.691406 247.277344 207.535156 247.921875 207.535156 C 248.570312 207.535156 249.21875 207.691406 249.804688 207.996094 L 261.035156 213.90625 C 261.65625 214.230469 262.296875 214.378906 262.917969 214.378906 C 265.273438 214.378906 267.351562 212.253906 266.90625 209.640625 L 264.761719 197.136719 C 264.535156 195.820312 264.972656 194.480469 265.929688 193.554688 L 275.007812 184.695312 C 277.183594 182.574219 276.308594 179.039062 273.660156 178.027344 C 273.382812 177.914062 273.085938 177.839844 272.765625 177.792969 L 260.203125 175.96875 C 258.886719 175.773438 257.75 174.953125 257.164062 173.757812 L 251.546875 162.378906 C 250.804688 160.875 249.363281 160.125 247.917969 160.125 Z M 247.917969 160.125 " fill-opacity="1" fill-rule="nonzero"/><path fill="#ffbe0d" d="M 308.234375 162.898438 C 308.46875 162.898438 309.058594 162.964844 309.375 163.609375 L 314.992188 174.992188 C 315.984375 177 317.898438 178.390625 320.121094 178.71875 L 332.664062 180.539062 C 332.808594 180.558594 332.898438 180.589844 332.945312 180.605469 C 332.960938 180.609375 332.972656 180.617188 332.984375 180.621094 C 333.375 180.769531 333.660156 181.117188 333.75 181.550781 C 333.816406 181.859375 333.800781 182.304688 333.382812 182.714844 L 324.308594 191.570312 C 322.691406 193.136719 321.957031 195.398438 322.339844 197.609375 L 324.484375 210.117188 C 324.554688 210.503906 324.464844 210.847656 324.222656 211.132812 C 323.96875 211.433594 323.601562 211.609375 323.234375 211.609375 C 323.035156 211.609375 322.835938 211.558594 322.636719 211.453125 L 311.402344 205.546875 C 310.429688 205.039062 309.332031 204.769531 308.234375 204.769531 C 307.132812 204.769531 306.035156 205.039062 305.058594 205.550781 L 293.824219 211.457031 C 293.628906 211.5625 293.429688 211.613281 293.234375 211.613281 C 292.65625 211.613281 292.007812 211.144531 291.964844 210.449219 C 291.964844 210.417969 291.960938 210.394531 291.957031 210.363281 C 291.953125 210.339844 291.953125 210.261719 291.976562 210.117188 L 294.128906 197.601562 C 294.5 195.394531 293.765625 193.136719 292.164062 191.574219 L 283.074219 182.714844 C 282.582031 182.234375 282.660156 181.691406 282.75 181.410156 C 282.824219 181.183594 283.070312 180.644531 283.78125 180.539062 L 296.339844 178.714844 C 298.554688 178.386719 300.472656 176.996094 301.464844 174.988281 L 307.085938 163.605469 C 307.394531 162.992188 307.9375 162.898438 308.234375 162.898438 M 308.234375 160.125 C 306.789062 160.125 305.347656 160.875 304.605469 162.378906 L 298.984375 173.761719 C 298.394531 174.953125 297.257812 175.777344 295.941406 175.972656 L 283.390625 177.796875 C 280.070312 178.28125 278.738281 182.355469 281.144531 184.699219 L 290.230469 193.558594 C 291.179688 194.484375 291.617188 195.824219 291.394531 197.140625 L 289.25 209.644531 C 289.195312 209.976562 289.171875 210.296875 289.203125 210.605469 C 289.328125 212.761719 291.175781 214.382812 293.234375 214.382812 C 293.859375 214.382812 294.503906 214.234375 295.125 213.90625 L 306.351562 207.996094 C 306.941406 207.691406 307.589844 207.535156 308.234375 207.535156 C 308.882812 207.535156 309.53125 207.691406 310.121094 207.996094 L 321.347656 213.90625 C 321.96875 214.230469 322.613281 214.378906 323.234375 214.378906 C 325.589844 214.378906 327.667969 212.253906 327.21875 209.640625 L 325.078125 197.136719 C 324.847656 195.820312 325.285156 194.480469 326.242188 193.554688 L 335.320312 184.695312 C 337.496094 182.574219 336.625 179.039062 333.972656 178.027344 C 333.695312 177.914062 333.402344 177.839844 333.078125 177.792969 L 320.519531 175.96875 C 319.203125 175.773438 318.066406 174.953125 317.476562 173.757812 L 311.863281 162.378906 C 311.117188 160.875 309.671875 160.125 308.234375 160.125 Z M 308.234375 160.125 " fill-opacity="1" fill-rule="nonzero"/><path fill="#ffce00" d="M 92.726562 178.03125 C 82.785156 194.082031 66.804688 206.007812 47.949219 210.605469 C 47.921875 210.296875 47.941406 209.976562 47.996094 209.644531 L 50.144531 197.140625 C 50.363281 195.824219 49.925781 194.484375 48.976562 193.558594 L 39.890625 184.699219 C 37.484375 182.355469 38.816406 178.28125 42.136719 177.796875 L 54.691406 175.972656 C 56.007812 175.777344 57.144531 174.957031 57.730469 173.761719 L 63.355469 162.378906 C 64.835938 159.371094 69.121094 159.371094 70.609375 162.378906 L 76.226562 173.761719 C 76.8125 174.953125 77.949219 175.777344 79.265625 175.972656 L 91.828125 177.796875 C 92.152344 177.847656 92.449219 177.921875 92.726562 178.03125 Z M 92.726562 178.03125 " fill-opacity="1" fill-rule="nonzero"/><path fill="#ffce00" d="M 153.039062 178.03125 C 143.097656 194.082031 127.117188 206.007812 108.265625 210.605469 C 108.234375 210.296875 108.257812 209.976562 108.3125 209.644531 L 110.457031 197.140625 C 110.679688 195.824219 110.242188 194.484375 109.292969 193.558594 L 100.207031 184.699219 C 97.800781 182.355469 99.132812 178.28125 102.449219 177.796875 L 115.003906 175.972656 C 116.320312 175.777344 117.457031 174.957031 118.046875 173.761719 L 123.667969 162.378906 C 125.152344 159.371094 129.433594 159.371094 130.925781 162.378906 L 136.539062 173.761719 C 137.128906 174.953125 138.265625 175.777344 139.582031 175.972656 L 152.140625 177.796875 C 152.460938 177.847656 152.761719 177.921875 153.039062 178.03125 Z M 153.039062 178.03125 " fill-opacity="1" fill-rule="nonzero"/></svg>