<svg xmlns="http://www.w3.org/2000/svg" xmlns:xlink="http://www.w3.org/1999/xlink" width="500" zoomAndPan="magnify" viewBox="0 0 375 374.999991" height="500" preserveAspectRatio="xMidYMid meet" version="1.0"><defs><clipPath id="e48748a102"><path d="M 59.003906 178.957031 L 76.253906 178.957031 L 76.253906 196.207031 L 59.003906 196.207031 Z M 59.003906 178.957031 " clip-rule="nonzero"/></clipPath></defs><g clip-path="url(#e48748a102)"><path fill="#ffce00" d="M 67.542969 178.957031 C 72.257812 178.957031 76.078125 182.78125 76.078125 187.496094 C 76.078125 192.210938 72.257812 196.03125 67.542969 196.03125 C 62.828125 196.03125 59.003906 192.210938 59.003906 187.496094 C 59.003906 182.78125 62.828125 178.957031 67.542969 178.957031 Z M 67.542969 178.957031 " fill-opacity="1" fill-rule="evenodd"/></g><path fill="#ffbe0d" d="M 84.988281 193.644531 C 84.035156 194.574219 83.597656 195.910156 83.824219 197.226562 L 85.96875 209.730469 C 86.539062 213.035156 83.0625 215.554688 80.097656 213.992188 L 68.867188 208.085938 C 67.6875 207.46875 66.277344 207.46875 65.097656 208.085938 L 53.867188 213.992188 C 51.199219 215.398438 48.117188 213.5 47.949219 210.695312 C 47.921875 210.382812 47.941406 210.0625 47.996094 209.730469 L 50.144531 197.226562 C 50.363281 195.910156 49.925781 194.574219 48.976562 193.644531 L 39.890625 184.785156 C 37.484375 182.445312 38.816406 178.367188 42.136719 177.882812 L 54.691406 176.0625 C 56.007812 175.867188 57.144531 175.042969 57.730469 173.847656 L 63.355469 162.46875 C 64.835938 159.460938 69.121094 159.460938 70.609375 162.46875 L 76.226562 173.847656 C 76.8125 175.039062 77.949219 175.867188 79.265625 176.0625 L 91.828125 177.882812 C 92.144531 177.929688 92.445312 178.011719 92.722656 178.117188 C 95.371094 179.128906 96.246094 182.664062 94.070312 184.785156 Z M 84.988281 193.644531 " fill-opacity="1" fill-rule="nonzero"/><path fill="#ffbe0d" d="M 145.304688 193.644531 C 144.347656 194.574219 143.910156 195.910156 144.136719 197.226562 L 146.28125 209.730469 C 146.851562 213.035156 143.375 215.554688 140.410156 213.992188 L 129.179688 208.085938 C 128 207.46875 126.589844 207.46875 125.410156 208.085938 L 114.179688 213.992188 C 111.511719 215.398438 108.429688 213.5 108.265625 210.695312 C 108.234375 210.382812 108.257812 210.0625 108.3125 209.730469 L 110.457031 197.226562 C 110.679688 195.910156 110.242188 194.574219 109.292969 193.644531 L 100.207031 184.785156 C 97.800781 182.445312 99.132812 178.367188 102.449219 177.882812 L 115.003906 176.0625 C 116.320312 175.867188 117.457031 175.042969 118.046875 173.847656 L 123.667969 162.46875 C 125.152344 159.460938 129.433594 159.460938 130.925781 162.46875 L 136.539062 173.847656 C 137.128906 175.039062 138.265625 175.867188 139.582031 176.0625 L 152.140625 177.882812 C 152.460938 177.929688 152.757812 178.011719 153.035156 178.117188 C 155.683594 179.128906 156.558594 182.664062 154.382812 184.785156 Z M 145.304688 193.644531 " fill-opacity="1" fill-rule="nonzero"/><path fill="#ffbe0d" d="M 205.613281 193.644531 C 204.65625 194.574219 204.222656 195.910156 204.449219 197.226562 L 206.59375 209.730469 C 207.160156 213.035156 203.6875 215.554688 200.722656 213.992188 L 189.492188 208.085938 C 188.3125 207.46875 186.902344 207.46875 185.722656 208.085938 L 174.492188 213.992188 C 171.820312 215.398438 168.738281 213.5 168.574219 210.695312 C 168.546875 210.382812 168.566406 210.0625 168.621094 209.730469 L 170.769531 197.226562 C 170.988281 195.910156 170.550781 194.574219 169.601562 193.644531 L 160.515625 184.785156 C 158.109375 182.445312 159.441406 178.367188 162.761719 177.882812 L 175.316406 176.0625 C 176.632812 175.867188 177.769531 175.042969 178.355469 173.847656 L 183.976562 162.46875 C 185.460938 159.460938 189.746094 159.460938 191.234375 162.46875 L 196.847656 173.847656 C 197.4375 175.039062 198.574219 175.867188 199.890625 176.0625 L 212.453125 177.882812 C 212.769531 177.929688 213.070312 178.011719 213.347656 178.117188 C 215.996094 179.128906 216.867188 182.664062 214.691406 184.785156 Z M 205.613281 193.644531 " fill-opacity="1" fill-rule="nonzero"/><path fill="#ffbe0d" d="M 308.234375 162.984375 C 308.46875 162.984375 309.058594 163.054688 309.375 163.695312 L 314.992188 175.078125 C 315.984375 177.085938 317.898438 178.480469 320.121094 178.808594 L 332.664062 180.625 C 332.808594 180.648438 332.898438 180.675781 332.945312 180.695312 C 332.960938 180.699219 332.972656 180.707031 332.984375 180.710938 C 333.375 180.855469 333.660156 181.207031 333.75 181.640625 C 333.816406 181.945312 333.800781 182.394531 333.382812 182.800781 L 324.308594 191.65625 C 322.691406 193.226562 321.957031 195.484375 322.339844 197.695312 L 324.484375 210.203125 C 324.554688 210.59375 324.464844 210.9375 324.222656 211.222656 C 323.96875 211.519531 323.601562 211.699219 323.234375 211.699219 C 323.035156 211.699219 322.835938 211.648438 322.636719 211.542969 L 311.402344 205.632812 C 310.425781 205.125 309.328125 204.851562 308.230469 204.851562 C 307.128906 204.851562 306.03125 205.125 305.054688 205.636719 L 293.820312 211.542969 C 293.625 211.648438 293.425781 211.699219 293.230469 211.699219 C 292.652344 211.699219 292.003906 211.230469 291.960938 210.53125 C 291.960938 210.503906 291.957031 210.476562 291.957031 210.449219 C 291.953125 210.425781 291.953125 210.34375 291.972656 210.199219 L 294.125 197.6875 C 294.496094 195.476562 293.761719 193.222656 292.160156 191.65625 L 283.070312 182.796875 C 282.578125 182.320312 282.65625 181.777344 282.746094 181.496094 C 282.820312 181.269531 283.066406 180.726562 283.777344 180.621094 L 296.335938 178.800781 C 298.550781 178.472656 300.46875 177.078125 301.460938 175.074219 L 307.082031 163.6875 C 307.394531 163.074219 307.9375 162.984375 308.234375 162.984375 M 308.234375 160.210938 C 306.789062 160.210938 305.347656 160.960938 304.605469 162.464844 L 298.984375 173.847656 C 298.394531 175.035156 297.257812 175.863281 295.941406 176.058594 L 283.390625 177.878906 C 280.070312 178.363281 278.738281 182.441406 281.144531 184.78125 L 290.230469 193.640625 C 291.179688 194.570312 291.617188 195.90625 291.394531 197.222656 L 289.25 209.726562 C 289.195312 210.058594 289.171875 210.378906 289.203125 210.691406 C 289.328125 212.84375 291.175781 214.464844 293.234375 214.464844 C 293.859375 214.464844 294.503906 214.316406 295.125 213.988281 L 306.351562 208.082031 C 306.941406 207.777344 307.589844 207.621094 308.234375 207.621094 C 308.882812 207.621094 309.53125 207.777344 310.121094 208.082031 L 321.347656 213.988281 C 321.96875 214.3125 322.613281 214.460938 323.234375 214.460938 C 325.589844 214.460938 327.667969 212.339844 327.21875 209.722656 L 325.078125 197.222656 C 324.847656 195.902344 325.285156 194.566406 326.242188 193.636719 L 335.320312 184.777344 C 337.496094 182.65625 336.625 179.125 333.972656 178.109375 C 333.695312 178 333.402344 177.921875 333.078125 177.875 L 320.519531 176.054688 C 319.203125 175.859375 318.066406 175.035156 317.476562 173.84375 L 311.863281 162.460938 C 311.117188 160.964844 309.671875 160.210938 308.234375 160.210938 Z M 308.234375 160.210938 " fill-opacity="1" fill-rule="nonzero"/><path fill="#ffbe0d" d="M 247.917969 162.988281 C 248.15625 162.988281 248.746094 163.058594 249.0625 163.699219 L 254.675781 175.082031 C 255.667969 177.089844 257.585938 178.484375 259.808594 178.8125 L 272.351562 180.628906 C 272.496094 180.652344 272.585938 180.679688 272.632812 180.699219 C 272.648438 180.703125 272.65625 180.710938 272.671875 180.710938 C 273.0625 180.859375 273.347656 181.210938 273.4375 181.644531 C 273.5 181.949219 273.488281 182.398438 273.070312 182.804688 L 263.992188 191.660156 C 262.378906 193.230469 261.644531 195.488281 262.027344 197.699219 L 264.171875 210.207031 C 264.238281 210.597656 264.148438 210.941406 263.90625 211.226562 C 263.65625 211.523438 263.285156 211.703125 262.917969 211.703125 C 262.71875 211.703125 262.523438 211.652344 262.328125 211.546875 L 251.09375 205.640625 C 250.121094 205.128906 249.023438 204.859375 247.921875 204.859375 C 246.820312 204.859375 245.726562 205.128906 244.746094 205.644531 L 233.515625 211.550781 C 233.320312 211.65625 233.121094 211.703125 232.921875 211.703125 C 232.34375 211.703125 231.699219 211.234375 231.65625 210.539062 C 231.65625 210.511719 231.652344 210.484375 231.648438 210.457031 C 231.644531 210.429688 231.644531 210.351562 231.667969 210.207031 L 233.816406 197.695312 C 234.1875 195.484375 233.457031 193.230469 231.855469 191.664062 L 222.765625 182.804688 C 222.269531 182.324219 222.347656 181.785156 222.441406 181.503906 C 222.511719 181.277344 222.761719 180.734375 223.472656 180.628906 L 236.027344 178.808594 C 238.246094 178.480469 240.160156 177.085938 241.152344 175.078125 L 246.773438 163.695312 C 247.085938 163.078125 247.621094 162.988281 247.917969 162.988281 M 247.917969 160.214844 C 246.476562 160.214844 245.035156 160.964844 244.292969 162.46875 L 238.671875 173.847656 C 238.082031 175.039062 236.945312 175.867188 235.628906 176.0625 L 223.074219 177.882812 C 219.753906 178.367188 218.421875 182.445312 220.832031 184.785156 L 229.917969 193.644531 C 230.867188 194.574219 231.300781 195.910156 231.082031 197.226562 L 228.933594 209.730469 C 228.878906 210.0625 228.859375 210.382812 228.886719 210.695312 C 229.015625 212.847656 230.863281 214.46875 232.921875 214.46875 C 233.546875 214.46875 234.1875 214.320312 234.808594 213.992188 L 246.039062 208.085938 C 246.625 207.777344 247.277344 207.625 247.921875 207.625 C 248.570312 207.625 249.21875 207.777344 249.804688 208.085938 L 261.035156 213.992188 C 261.65625 214.316406 262.296875 214.464844 262.917969 214.464844 C 265.273438 214.464844 267.351562 212.34375 266.90625 209.726562 L 264.761719 197.222656 C 264.535156 195.90625 264.972656 194.570312 265.929688 193.640625 L 275.007812 184.78125 C 277.183594 182.660156 276.308594 179.128906 273.660156 178.113281 C 273.382812 178.003906 273.085938 177.925781 272.765625 177.878906 L 260.203125 176.058594 C 258.886719 175.863281 257.75 175.039062 257.164062 173.847656 L 251.546875 162.464844 C 250.804688 160.96875 249.363281 160.214844 247.917969 160.214844 Z M 247.917969 160.214844 " fill-opacity="1" fill-rule="nonzero"/><path fill="#ffbe0d" d="M 247.921875 160.207031 L 247.921875 207.625 C 247.269531 207.625 246.625 207.78125 246.039062 208.089844 L 234.808594 213.996094 C 232.140625 215.402344 229.058594 213.503906 228.890625 210.699219 C 228.863281 210.386719 228.882812 210.066406 228.9375 209.734375 L 231.085938 197.230469 C 231.304688 195.914062 230.867188 194.574219 229.921875 193.648438 L 220.835938 184.789062 C 218.425781 182.449219 219.757812 178.371094 223.078125 177.886719 L 235.632812 176.066406 C 236.949219 175.871094 238.085938 175.046875 238.675781 173.851562 L 244.296875 162.472656 C 245.035156 160.964844 246.480469 160.207031 247.921875 160.207031 Z M 247.921875 160.207031 " fill-opacity="1" fill-rule="nonzero"/><path fill="#ffce00" d="M 92.726562 178.117188 C 82.785156 194.171875 66.804688 206.09375 47.949219 210.695312 C 47.921875 210.382812 47.941406 210.0625 47.996094 209.730469 L 50.144531 197.226562 C 50.363281 195.910156 49.925781 194.574219 48.976562 193.644531 L 39.890625 184.785156 C 37.484375 182.445312 38.816406 178.367188 42.136719 177.882812 L 54.691406 176.0625 C 56.007812 175.867188 57.144531 175.042969 57.730469 173.847656 L 63.355469 162.46875 C 64.835938 159.460938 69.121094 159.460938 70.609375 162.46875 L 76.226562 173.847656 C 76.8125 175.039062 77.949219 175.867188 79.265625 176.0625 L 91.828125 177.882812 C 92.152344 177.929688 92.449219 178.007812 92.726562 178.117188 Z M 92.726562 178.117188 " fill-opacity="1" fill-rule="nonzero"/><path fill="#ffce00" d="M 153.039062 178.117188 C 143.097656 194.171875 127.117188 206.09375 108.265625 210.695312 C 108.234375 210.382812 108.257812 210.0625 108.3125 209.730469 L 110.457031 197.226562 C 110.679688 195.910156 110.242188 194.574219 109.292969 193.644531 L 100.207031 184.785156 C 97.800781 182.445312 99.132812 178.367188 102.449219 177.882812 L 115.003906 176.0625 C 116.320312 175.867188 117.457031 175.042969 118.046875 173.847656 L 123.667969 162.46875 C 125.152344 159.460938 129.433594 159.460938 130.925781 162.46875 L 136.539062 173.847656 C 137.128906 175.039062 138.265625 175.867188 139.582031 176.0625 L 152.140625 177.882812 C 152.460938 177.929688 152.761719 178.007812 153.039062 178.117188 Z M 153.039062 178.117188 " fill-opacity="1" fill-rule="nonzero"/><path fill="#ffce00" d="M 213.351562 178.117188 C 203.410156 194.171875 187.429688 206.09375 168.574219 210.695312 C 168.546875 210.382812 168.566406 210.0625 168.621094 209.730469 L 170.769531 197.226562 C 170.988281 195.910156 170.550781 194.574219 169.601562 193.644531 L 160.515625 184.785156 C 158.109375 182.445312 159.441406 178.367188 162.761719 177.882812 L 175.316406 176.0625 C 176.632812 175.867188 177.769531 175.042969 178.355469 173.847656 L 183.976562 162.46875 C 185.460938 159.460938 189.746094 159.460938 191.234375 162.46875 L 196.847656 173.847656 C 197.4375 175.039062 198.574219 175.867188 199.890625 176.0625 L 212.453125 177.882812 C 212.773438 177.929688 213.074219 178.007812 213.351562 178.117188 Z M 213.351562 178.117188 " fill-opacity="1" fill-rule="nonzero"/><path fill="#ffce00" d="M 247.921875 160.207031 L 247.921875 203.054688 C 242.042969 206.449219 235.652344 209.046875 228.886719 210.695312 C 228.859375 210.382812 228.878906 210.0625 228.933594 209.730469 L 231.082031 197.226562 C 231.300781 195.910156 230.867188 194.574219 229.917969 193.644531 L 220.832031 184.785156 C 218.421875 182.445312 219.753906 178.367188 223.074219 177.882812 L 235.628906 176.0625 C 236.945312 175.867188 238.082031 175.042969 238.671875 173.847656 L 244.292969 162.46875 C 245.035156 160.964844 246.480469 160.207031 247.921875 160.207031 Z M 247.921875 160.207031 " fill-opacity="1" fill-rule="nonzero"/></svg>