<svg xmlns="http://www.w3.org/2000/svg" xmlns:xlink="http://www.w3.org/1999/xlink" width="500" zoomAndPan="magnify" viewBox="0 0 375 374.999991" height="500" preserveAspectRatio="xMidYMid meet" version="1.0"><defs><clipPath id="bb32fb8169"><path d="M 59.003906 178.957031 L 76.253906 178.957031 L 76.253906 196.207031 L 59.003906 196.207031 Z M 59.003906 178.957031 " clip-rule="nonzero"/></clipPath></defs><g clip-path="url(#bb32fb8169)"><path fill="#ffce00" d="M 67.542969 178.957031 C 72.257812 178.957031 76.078125 182.78125 76.078125 187.496094 C 76.078125 192.210938 72.257812 196.03125 67.542969 196.03125 C 62.828125 196.03125 59.003906 192.210938 59.003906 187.496094 C 59.003906 182.78125 62.828125 178.957031 67.542969 178.957031 Z M 67.542969 178.957031 " fill-opacity="1" fill-rule="evenodd"/></g><path fill="#ffbe0d" d="M 84.988281 193.640625 C 84.035156 194.570312 83.597656 195.90625 83.824219 197.222656 L 85.96875 209.726562 C 86.539062 213.03125 83.0625 215.550781 80.097656 213.988281 L 68.867188 208.082031 C 67.6875 207.464844 66.277344 207.464844 65.097656 208.082031 L 53.867188 213.988281 C 51.199219 215.394531 48.117188 213.5 47.949219 210.691406 C 47.921875 210.378906 47.941406 210.058594 47.996094 209.726562 L 50.144531 197.222656 C 50.363281 195.90625 49.925781 194.570312 48.976562 193.640625 L 39.890625 184.78125 C 37.484375 182.441406 38.816406 178.363281 42.136719 177.878906 L 54.691406 176.058594 C 56.007812 175.863281 57.144531 175.039062 57.730469 173.847656 L 63.355469 162.464844 C 64.835938 159.457031 69.121094 159.457031 70.609375 162.464844 L 76.226562 173.847656 C 76.8125 175.035156 77.949219 175.863281 79.265625 176.058594 L 91.828125 177.878906 C 92.144531 177.925781 92.445312 178.007812 92.722656 178.113281 C 95.371094 179.125 96.246094 182.660156 94.070312 184.78125 Z M 84.988281 193.640625 " fill-opacity="1" fill-rule="nonzero"/><path fill="#ffbe0d" d="M 145.304688 193.640625 C 144.347656 194.570312 143.910156 195.90625 144.136719 197.222656 L 146.28125 209.726562 C 146.851562 213.03125 143.375 215.550781 140.410156 213.988281 L 129.179688 208.082031 C 128 207.464844 126.589844 207.464844 125.410156 208.082031 L 114.179688 213.988281 C 111.511719 215.394531 108.429688 213.5 108.265625 210.691406 C 108.234375 210.378906 108.257812 210.058594 108.3125 209.726562 L 110.457031 197.222656 C 110.679688 195.90625 110.242188 194.570312 109.292969 193.640625 L 100.207031 184.78125 C 97.800781 182.441406 99.132812 178.363281 102.449219 177.878906 L 115.003906 176.058594 C 116.320312 175.863281 117.457031 175.039062 118.046875 173.847656 L 123.667969 162.464844 C 125.152344 159.457031 129.433594 159.457031 130.925781 162.464844 L 136.539062 173.847656 C 137.128906 175.035156 138.265625 175.863281 139.582031 176.058594 L 152.140625 177.878906 C 152.460938 177.925781 152.757812 178.007812 153.035156 178.113281 C 155.683594 179.125 156.558594 182.660156 154.382812 184.78125 Z M 145.304688 193.640625 " fill-opacity="1" fill-rule="nonzero"/><path fill="#ffbe0d" d="M 205.613281 193.640625 C 204.65625 194.570312 204.222656 195.90625 204.449219 197.222656 L 206.59375 209.726562 C 207.160156 213.03125 203.6875 215.550781 200.722656 213.988281 L 189.492188 208.082031 C 188.3125 207.464844 186.902344 207.464844 185.722656 208.082031 L 174.492188 213.988281 C 171.820312 215.394531 168.738281 213.5 168.574219 210.691406 C 168.546875 210.378906 168.566406 210.058594 168.621094 209.726562 L 170.769531 197.222656 C 170.988281 195.90625 170.550781 194.570312 169.601562 193.640625 L 160.515625 184.78125 C 158.109375 182.441406 159.441406 178.363281 162.761719 177.878906 L 175.316406 176.058594 C 176.632812 175.863281 177.769531 175.039062 178.355469 173.847656 L 183.976562 162.464844 C 185.460938 159.457031 189.746094 159.457031 191.234375 162.464844 L 196.847656 173.847656 C 197.4375 175.035156 198.574219 175.863281 199.890625 176.058594 L 212.453125 177.878906 C 212.769531 177.925781 213.070312 178.007812 213.347656 178.113281 C 215.996094 179.125 216.867188 182.660156 214.691406 184.78125 Z M 205.613281 193.640625 " fill-opacity="1" fill-rule="nonzero"/><path fill="#ffbe0d" d="M 247.917969 162.980469 C 248.15625 162.980469 248.746094 163.050781 249.0625 163.691406 L 254.675781 175.078125 C 255.667969 177.082031 257.585938 178.476562 259.808594 178.804688 L 272.351562 180.621094 C 272.496094 180.644531 272.585938 180.671875 272.632812 180.691406 C 272.648438 180.695312 272.65625 180.703125 272.671875 180.707031 C 273.0625 180.851562 273.347656 181.203125 273.4375 181.636719 C 273.5 181.941406 273.488281 182.390625 273.070312 182.796875 L 263.992188 191.652344 C 262.378906 193.222656 261.644531 195.480469 262.027344 197.695312 L 264.171875 210.199219 C 264.238281 210.589844 264.148438 210.933594 263.90625 211.21875 C 263.65625 211.515625 263.285156 211.695312 262.917969 211.695312 C 262.71875 211.695312 262.523438 211.644531 262.324219 211.539062 L 251.089844 205.632812 C 250.117188 205.125 249.019531 204.851562 247.917969 204.851562 C 246.816406 204.851562 245.722656 205.125 244.742188 205.636719 L 233.511719 211.542969 C 233.316406 211.648438 233.117188 211.699219 232.917969 211.699219 C 232.339844 211.699219 231.695312 211.230469 231.652344 210.53125 C 231.652344 210.503906 231.648438 210.476562 231.644531 210.449219 C 231.640625 210.425781 231.640625 210.34375 231.664062 210.199219 L 233.8125 197.6875 C 234.183594 195.476562 233.453125 193.222656 231.851562 191.65625 L 222.761719 182.796875 C 222.265625 182.316406 222.347656 181.777344 222.4375 181.496094 C 222.507812 181.269531 222.757812 180.726562 223.46875 180.621094 L 236.023438 178.800781 C 238.242188 178.472656 240.15625 177.078125 241.148438 175.074219 L 246.769531 163.6875 C 247.085938 163.070312 247.621094 162.980469 247.917969 162.980469 M 247.917969 160.207031 C 246.476562 160.207031 245.035156 160.957031 244.292969 162.460938 L 238.671875 173.84375 C 238.082031 175.03125 236.945312 175.859375 235.628906 176.054688 L 223.074219 177.875 C 219.753906 178.359375 218.421875 182.4375 220.832031 184.777344 L 229.917969 193.636719 C 230.867188 194.566406 231.300781 195.902344 231.082031 197.222656 L 228.933594 209.722656 C 228.878906 210.054688 228.859375 210.378906 228.886719 210.6875 C 229.015625 212.839844 230.863281 214.460938 232.921875 214.460938 C 233.546875 214.460938 234.1875 214.3125 234.808594 213.984375 L 246.039062 208.078125 C 246.625 207.773438 247.277344 207.617188 247.921875 207.617188 C 248.570312 207.617188 249.21875 207.773438 249.804688 208.078125 L 261.035156 213.984375 C 261.65625 214.308594 262.296875 214.457031 262.917969 214.457031 C 265.273438 214.457031 267.351562 212.335938 266.90625 209.71875 L 264.761719 197.21875 C 264.535156 195.898438 264.972656 194.5625 265.929688 193.632812 L 275.007812 184.777344 C 277.183594 182.652344 276.308594 179.121094 273.660156 178.105469 C 273.382812 177.996094 273.085938 177.917969 272.765625 177.871094 L 260.203125 176.050781 C 258.886719 175.855469 257.75 175.03125 257.164062 173.839844 L 251.546875 162.457031 C 250.804688 160.960938 249.363281 160.207031 247.917969 160.207031 Z M 247.917969 160.207031 " fill-opacity="1" fill-rule="nonzero"/><path fill="#ffbe0d" d="M 308.234375 162.980469 C 308.46875 162.980469 309.058594 163.050781 309.375 163.691406 L 314.992188 175.078125 C 315.984375 177.082031 317.898438 178.476562 320.121094 178.804688 L 332.664062 180.621094 C 332.808594 180.644531 332.898438 180.671875 332.945312 180.691406 C 332.960938 180.695312 332.972656 180.703125 332.984375 180.707031 C 333.375 180.851562 333.660156 181.203125 333.75 181.636719 C 333.816406 181.941406 333.800781 182.390625 333.382812 182.796875 L 324.308594 191.652344 C 322.691406 193.222656 321.957031 195.480469 322.339844 197.695312 L 324.484375 210.199219 C 324.554688 210.589844 324.464844 210.933594 324.222656 211.21875 C 323.96875 211.515625 323.601562 211.695312 323.234375 211.695312 C 323.035156 211.695312 322.835938 211.644531 322.636719 211.539062 L 311.402344 205.632812 C 310.429688 205.125 309.332031 204.851562 308.234375 204.851562 C 307.132812 204.851562 306.035156 205.125 305.058594 205.636719 L 293.824219 211.542969 C 293.628906 211.648438 293.429688 211.699219 293.234375 211.699219 C 292.65625 211.699219 292.007812 211.230469 291.964844 210.53125 C 291.964844 210.503906 291.960938 210.476562 291.957031 210.449219 C 291.953125 210.425781 291.953125 210.34375 291.976562 210.199219 L 294.128906 197.6875 C 294.5 195.476562 293.765625 193.222656 292.164062 191.65625 L 283.074219 182.796875 C 282.582031 182.316406 282.660156 181.777344 282.75 181.496094 C 282.824219 181.269531 283.070312 180.726562 283.78125 180.621094 L 296.339844 178.800781 C 298.554688 178.472656 300.472656 177.078125 301.464844 175.074219 L 307.085938 163.6875 C 307.394531 163.070312 307.9375 162.980469 308.234375 162.980469 M 308.234375 160.207031 C 306.789062 160.207031 305.347656 160.957031 304.605469 162.460938 L 298.984375 173.84375 C 298.394531 175.03125 297.257812 175.859375 295.941406 176.054688 L 283.390625 177.875 C 280.070312 178.359375 278.738281 182.4375 281.144531 184.777344 L 290.230469 193.636719 C 291.179688 194.566406 291.617188 195.902344 291.394531 197.222656 L 289.25 209.722656 C 289.195312 210.054688 289.171875 210.378906 289.203125 210.6875 C 289.328125 212.839844 291.175781 214.460938 293.234375 214.460938 C 293.859375 214.460938 294.503906 214.3125 295.125 213.984375 L 306.351562 208.078125 C 306.941406 207.773438 307.589844 207.617188 308.234375 207.617188 C 308.882812 207.617188 309.53125 207.773438 310.121094 208.078125 L 321.347656 213.984375 C 321.96875 214.308594 322.613281 214.457031 323.234375 214.457031 C 325.589844 214.457031 327.667969 212.335938 327.21875 209.71875 L 325.078125 197.21875 C 324.847656 195.898438 325.285156 194.5625 326.242188 193.632812 L 335.320312 184.777344 C 337.496094 182.652344 336.625 179.121094 333.972656 178.105469 C 333.695312 177.996094 333.402344 177.917969 333.078125 177.871094 L 320.519531 176.050781 C 319.203125 175.855469 318.066406 175.03125 317.476562 173.839844 L 311.863281 162.457031 C 311.117188 160.960938 309.671875 160.207031 308.234375 160.207031 Z M 308.234375 160.207031 " fill-opacity="1" fill-rule="nonzero"/><path fill="#ffce00" d="M 92.726562 178.113281 C 82.785156 194.167969 66.804688 206.089844 47.949219 210.691406 C 47.921875 210.378906 47.941406 210.058594 47.996094 209.726562 L 50.144531 197.222656 C 50.363281 195.90625 49.925781 194.570312 48.976562 193.640625 L 39.890625 184.78125 C 37.484375 182.441406 38.816406 178.363281 42.136719 177.878906 L 54.691406 176.058594 C 56.007812 175.863281 57.144531 175.039062 57.730469 173.847656 L 63.355469 162.464844 C 64.835938 159.457031 69.121094 159.457031 70.609375 162.464844 L 76.226562 173.847656 C 76.8125 175.035156 77.949219 175.863281 79.265625 176.058594 L 91.828125 177.878906 C 92.152344 177.925781 92.449219 178.003906 92.726562 178.113281 Z M 92.726562 178.113281 " fill-opacity="1" fill-rule="nonzero"/><path fill="#ffce00" d="M 153.039062 178.113281 C 143.097656 194.167969 127.117188 206.089844 108.265625 210.691406 C 108.234375 210.378906 108.257812 210.058594 108.3125 209.726562 L 110.457031 197.222656 C 110.679688 195.90625 110.242188 194.570312 109.292969 193.640625 L 100.207031 184.78125 C 97.800781 182.441406 99.132812 178.363281 102.449219 177.878906 L 115.003906 176.058594 C 116.320312 175.863281 117.457031 175.039062 118.046875 173.847656 L 123.667969 162.464844 C 125.152344 159.457031 129.433594 159.457031 130.925781 162.464844 L 136.539062 173.847656 C 137.128906 175.035156 138.265625 175.863281 139.582031 176.058594 L 152.140625 177.878906 C 152.460938 177.925781 152.761719 178.003906 153.039062 178.113281 Z M 153.039062 178.113281 " fill-opacity="1" fill-rule="nonzero"/><path fill="#ffce00" d="M 213.351562 178.113281 C 203.410156 194.167969 187.429688 206.089844 168.574219 210.691406 C 168.546875 210.378906 168.566406 210.058594 168.621094 209.726562 L 170.769531 197.222656 C 170.988281 195.90625 170.550781 194.570312 169.601562 193.640625 L 160.515625 184.78125 C 158.109375 182.441406 159.441406 178.363281 162.761719 177.878906 L 175.316406 176.058594 C 176.632812 175.863281 177.769531 175.039062 178.355469 173.847656 L 183.976562 162.464844 C 185.460938 159.457031 189.746094 159.457031 191.234375 162.464844 L 196.847656 173.847656 C 197.4375 175.035156 198.574219 175.863281 199.890625 176.058594 L 212.453125 177.878906 C 212.773438 177.925781 213.074219 178.003906 213.351562 178.113281 Z M 213.351562 178.113281 " fill-opacity="1" fill-rule="nonzero"/></svg>