<svg xmlns="http://www.w3.org/2000/svg" xmlns:xlink="http://www.w3.org/1999/xlink" width="500" zoomAndPan="magnify" viewBox="0 0 375 374.999991" height="500" preserveAspectRatio="xMidYMid meet" version="1.0"><defs><clipPath id="2b5d68c928"><path d="M 59.003906 178.957031 L 76.253906 178.957031 L 76.253906 196.207031 L 59.003906 196.207031 Z M 59.003906 178.957031 " clip-rule="nonzero"/></clipPath></defs><g clip-path="url(#2b5d68c928)"><path fill="#ffce00" d="M 67.542969 178.957031 C 72.257812 178.957031 76.078125 182.78125 76.078125 187.496094 C 76.078125 192.210938 72.257812 196.03125 67.542969 196.03125 C 62.828125 196.03125 59.003906 192.210938 59.003906 187.496094 C 59.003906 182.78125 62.828125 178.957031 67.542969 178.957031 Z M 67.542969 178.957031 " fill-opacity="1" fill-rule="evenodd"/></g><path fill="#ffbe0d" d="M 84.984375 193.625 C 84.03125 194.550781 83.59375 195.890625 83.820312 197.207031 L 85.964844 209.710938 C 86.535156 213.015625 83.058594 215.535156 80.09375 213.972656 L 68.863281 208.0625 C 67.683594 207.445312 66.273438 207.445312 65.09375 208.0625 L 53.863281 213.972656 C 51.195312 215.378906 48.113281 213.480469 47.945312 210.671875 C 47.917969 210.363281 47.9375 210.042969 47.992188 209.710938 L 50.140625 197.207031 C 50.359375 195.890625 49.921875 194.550781 48.976562 193.625 L 39.890625 184.765625 C 37.480469 182.421875 38.8125 178.34375 42.132812 177.863281 L 54.6875 176.039062 C 56.003906 175.84375 57.140625 175.023438 57.730469 173.828125 L 63.351562 162.445312 C 64.832031 159.4375 69.117188 159.4375 70.605469 162.445312 L 76.222656 173.828125 C 76.808594 175.019531 77.945312 175.84375 79.261719 176.039062 L 91.824219 177.863281 C 92.140625 177.910156 92.441406 177.988281 92.71875 178.097656 C 95.367188 179.105469 96.242188 182.644531 94.066406 184.765625 Z M 84.984375 193.625 " fill-opacity="1" fill-rule="nonzero"/><path fill="#ffbe0d" d="M 145.300781 193.625 C 144.34375 194.550781 143.90625 195.890625 144.132812 197.207031 L 146.277344 209.710938 C 146.847656 213.015625 143.375 215.535156 140.40625 213.972656 L 129.179688 208.0625 C 127.996094 207.445312 126.585938 207.445312 125.40625 208.0625 L 114.179688 213.972656 C 111.507812 215.378906 108.425781 213.480469 108.261719 210.671875 C 108.230469 210.363281 108.253906 210.042969 108.308594 209.710938 L 110.453125 197.207031 C 110.675781 195.890625 110.238281 194.550781 109.289062 193.625 L 100.203125 184.765625 C 97.796875 182.421875 99.128906 178.34375 102.445312 177.863281 L 115 176.039062 C 116.316406 175.84375 117.453125 175.023438 118.042969 173.828125 L 123.664062 162.445312 C 125.148438 159.4375 129.429688 159.4375 130.921875 162.445312 L 136.535156 173.828125 C 137.125 175.019531 138.261719 175.84375 139.578125 176.039062 L 152.136719 177.863281 C 152.457031 177.910156 152.753906 177.988281 153.03125 178.097656 C 155.679688 179.105469 156.554688 182.644531 154.378906 184.765625 Z M 145.300781 193.625 " fill-opacity="1" fill-rule="nonzero"/><path fill="#ffbe0d" d="M 205.609375 193.625 C 204.652344 194.550781 204.21875 195.890625 204.445312 197.207031 L 206.589844 209.710938 C 207.160156 213.015625 203.683594 215.535156 200.71875 213.972656 L 189.488281 208.0625 C 188.308594 207.445312 186.898438 207.445312 185.71875 208.0625 L 174.488281 213.972656 C 171.816406 215.378906 168.738281 213.480469 168.570312 210.671875 C 168.542969 210.363281 168.5625 210.042969 168.617188 209.710938 L 170.765625 197.207031 C 170.984375 195.890625 170.546875 194.550781 169.597656 193.625 L 160.511719 184.765625 C 158.105469 182.421875 159.4375 178.34375 162.757812 177.863281 L 175.3125 176.039062 C 176.628906 175.84375 177.765625 175.023438 178.351562 173.828125 L 183.976562 162.445312 C 185.457031 159.4375 189.742188 159.4375 191.230469 162.445312 L 196.84375 173.828125 C 197.433594 175.019531 198.570312 175.84375 199.886719 176.039062 L 212.449219 177.863281 C 212.765625 177.910156 213.066406 177.988281 213.34375 178.097656 C 215.992188 179.105469 216.863281 182.644531 214.6875 184.765625 Z M 205.609375 193.625 " fill-opacity="1" fill-rule="nonzero"/><path fill="#ffbe0d" d="M 265.925781 193.625 C 264.96875 194.550781 264.53125 195.890625 264.757812 197.207031 L 266.902344 209.710938 C 267.472656 213.015625 263.996094 215.535156 261.03125 213.972656 L 249.800781 208.0625 C 248.621094 207.445312 247.210938 207.445312 246.03125 208.0625 L 234.800781 213.972656 C 232.132812 215.378906 229.050781 213.480469 228.882812 210.671875 C 228.855469 210.363281 228.878906 210.042969 228.929688 209.710938 L 231.078125 197.207031 C 231.296875 195.890625 230.863281 194.550781 229.914062 193.625 L 220.828125 184.765625 C 218.421875 182.421875 219.75 178.34375 223.070312 177.863281 L 235.625 176.039062 C 236.941406 175.84375 238.078125 175.023438 238.667969 173.828125 L 244.289062 162.445312 C 245.773438 159.4375 250.054688 159.4375 251.546875 162.445312 L 257.160156 173.828125 C 257.746094 175.019531 258.882812 175.84375 260.203125 176.039062 L 272.761719 177.863281 C 273.078125 177.910156 273.378906 177.988281 273.65625 178.097656 C 276.304688 179.105469 277.179688 182.644531 275.003906 184.765625 Z M 265.925781 193.625 " fill-opacity="1" fill-rule="nonzero"/><path fill="#ffbe0d" d="M 308.230469 162.964844 C 308.46875 162.964844 309.054688 163.03125 309.371094 163.675781 L 314.988281 175.058594 C 315.980469 177.066406 317.894531 178.457031 320.117188 178.785156 L 332.660156 180.605469 C 332.804688 180.625 332.894531 180.65625 332.941406 180.671875 C 332.957031 180.675781 332.96875 180.683594 332.980469 180.6875 C 333.371094 180.835938 333.65625 181.183594 333.746094 181.617188 C 333.8125 181.925781 333.796875 182.371094 333.378906 182.78125 L 324.304688 191.636719 C 322.6875 193.203125 321.953125 195.464844 322.335938 197.675781 L 324.480469 210.183594 C 324.550781 210.570312 324.460938 210.914062 324.21875 211.199219 C 323.964844 211.5 323.597656 211.675781 323.230469 211.675781 C 323.03125 211.675781 322.832031 211.625 322.632812 211.519531 L 311.402344 205.613281 C 310.425781 205.105469 309.328125 204.835938 308.230469 204.835938 C 307.128906 204.835938 306.03125 205.105469 305.054688 205.617188 L 293.820312 211.523438 C 293.625 211.628906 293.425781 211.679688 293.230469 211.679688 C 292.652344 211.679688 292.003906 211.210938 291.960938 210.515625 C 291.960938 210.484375 291.957031 210.460938 291.953125 210.429688 C 291.953125 210.40625 291.953125 210.328125 291.972656 210.183594 L 294.125 197.667969 C 294.496094 195.460938 293.761719 193.203125 292.160156 191.640625 L 283.070312 182.78125 C 282.578125 182.300781 282.65625 181.757812 282.746094 181.476562 C 282.820312 181.25 283.066406 180.710938 283.777344 180.605469 L 296.335938 178.78125 C 298.550781 178.453125 300.46875 177.0625 301.460938 175.054688 L 307.082031 163.671875 C 307.390625 163.058594 307.933594 162.964844 308.230469 162.964844 M 308.230469 160.191406 C 306.785156 160.191406 305.347656 160.941406 304.601562 162.445312 L 298.980469 173.828125 C 298.390625 175.019531 297.253906 175.84375 295.9375 176.039062 L 283.386719 177.863281 C 280.066406 178.34375 278.734375 182.421875 281.140625 184.765625 L 290.226562 193.625 C 291.175781 194.550781 291.613281 195.890625 291.390625 197.207031 L 289.246094 209.710938 C 289.191406 210.042969 289.167969 210.363281 289.199219 210.671875 C 289.324219 212.828125 291.171875 214.449219 293.234375 214.449219 C 293.855469 214.449219 294.5 214.300781 295.121094 213.972656 L 306.347656 208.0625 C 306.9375 207.757812 307.585938 207.601562 308.234375 207.601562 C 308.882812 207.601562 309.527344 207.757812 310.117188 208.0625 L 321.34375 213.972656 C 321.964844 214.296875 322.609375 214.445312 323.230469 214.445312 C 325.585938 214.445312 327.664062 212.320312 327.214844 209.707031 L 325.074219 197.203125 C 324.84375 195.886719 325.28125 194.546875 326.238281 193.621094 L 335.316406 184.761719 C 337.492188 182.640625 336.621094 179.105469 333.972656 178.09375 C 333.691406 177.980469 333.398438 177.90625 333.074219 177.859375 L 320.515625 176.035156 C 319.199219 175.839844 318.0625 175.019531 317.472656 173.824219 L 311.859375 162.445312 C 311.113281 160.941406 309.667969 160.191406 308.230469 160.191406 Z M 308.230469 160.191406 " fill-opacity="1" fill-rule="nonzero"/><path fill="#ffbe0d" d="M 308.230469 160.183594 L 308.230469 207.601562 C 307.574219 207.601562 306.933594 207.761719 306.34375 208.066406 L 295.117188 213.972656 C 292.445312 215.382812 289.363281 213.484375 289.199219 210.675781 C 289.167969 210.367188 289.191406 210.046875 289.246094 209.714844 L 291.390625 197.210938 C 291.613281 195.894531 291.175781 194.554688 290.226562 193.628906 L 281.140625 184.769531 C 278.734375 182.425781 280.066406 178.347656 283.386719 177.867188 L 295.9375 176.042969 C 297.253906 175.847656 298.390625 175.027344 298.980469 173.832031 L 304.601562 162.449219 C 305.347656 160.9375 306.785156 160.183594 308.230469 160.183594 Z M 308.230469 160.183594 " fill-opacity="1" fill-rule="nonzero"/><path fill="#ffce00" d="M 92.722656 178.097656 C 82.78125 194.148438 66.800781 206.074219 47.945312 210.671875 C 47.917969 210.363281 47.9375 210.042969 47.992188 209.710938 L 50.140625 197.207031 C 50.359375 195.890625 49.921875 194.550781 48.976562 193.625 L 39.890625 184.765625 C 37.480469 182.421875 38.8125 178.34375 42.132812 177.863281 L 54.6875 176.039062 C 56.003906 175.84375 57.140625 175.023438 57.730469 173.828125 L 63.351562 162.445312 C 64.832031 159.4375 69.117188 159.4375 70.605469 162.445312 L 76.222656 173.828125 C 76.808594 175.019531 77.945312 175.84375 79.261719 176.039062 L 91.824219 177.863281 C 92.148438 177.910156 92.445312 177.988281 92.722656 178.097656 Z M 92.722656 178.097656 " fill-opacity="1" fill-rule="nonzero"/><path fill="#ffce00" d="M 153.035156 178.097656 C 143.09375 194.148438 127.113281 206.074219 108.261719 210.671875 C 108.230469 210.363281 108.253906 210.042969 108.308594 209.710938 L 110.453125 197.207031 C 110.675781 195.890625 110.238281 194.550781 109.289062 193.625 L 100.203125 184.765625 C 97.796875 182.421875 99.128906 178.34375 102.445312 177.863281 L 115 176.039062 C 116.316406 175.84375 117.453125 175.023438 118.042969 173.828125 L 123.664062 162.445312 C 125.148438 159.4375 129.429688 159.4375 130.921875 162.445312 L 136.535156 173.828125 C 137.125 175.019531 138.261719 175.84375 139.578125 176.039062 L 152.136719 177.863281 C 152.460938 177.910156 152.757812 177.988281 153.035156 178.097656 Z M 153.035156 178.097656 " fill-opacity="1" fill-rule="nonzero"/><path fill="#ffce00" d="M 213.347656 178.097656 C 203.40625 194.148438 187.425781 206.074219 168.570312 210.671875 C 168.542969 210.363281 168.5625 210.042969 168.617188 209.710938 L 170.765625 197.207031 C 170.984375 195.890625 170.546875 194.550781 169.597656 193.625 L 160.511719 184.765625 C 158.105469 182.421875 159.4375 178.34375 162.757812 177.863281 L 175.3125 176.039062 C 176.628906 175.84375 177.765625 175.023438 178.351562 173.828125 L 183.976562 162.445312 C 185.457031 159.4375 189.742188 159.4375 191.230469 162.445312 L 196.84375 173.828125 C 197.433594 175.019531 198.570312 175.84375 199.886719 176.039062 L 212.449219 177.863281 C 212.769531 177.910156 213.070312 177.988281 213.347656 178.097656 Z M 213.347656 178.097656 " fill-opacity="1" fill-rule="nonzero"/><path fill="#ffce00" d="M 273.65625 178.097656 C 263.714844 194.148438 247.734375 206.074219 228.878906 210.671875 C 228.851562 210.363281 228.875 210.042969 228.925781 209.710938 L 231.074219 197.207031 C 231.292969 195.890625 230.859375 194.550781 229.910156 193.625 L 220.824219 184.765625 C 218.417969 182.421875 219.746094 178.34375 223.066406 177.863281 L 235.621094 176.039062 C 236.9375 175.84375 238.074219 175.023438 238.664062 173.828125 L 244.285156 162.445312 C 245.769531 159.4375 250.050781 159.4375 251.542969 162.445312 L 257.15625 173.828125 C 257.742188 175.019531 258.878906 175.84375 260.199219 176.039062 L 272.757812 177.863281 C 273.082031 177.910156 273.378906 177.988281 273.65625 178.097656 Z M 273.65625 178.097656 " fill-opacity="1" fill-rule="nonzero"/><path fill="#ffce00" d="M 308.230469 160.183594 L 308.230469 203.035156 C 302.351562 206.429688 295.960938 209.023438 289.195312 210.671875 C 289.164062 210.363281 289.1875 210.042969 289.242188 209.710938 L 291.386719 197.207031 C 291.609375 195.890625 291.171875 194.550781 290.222656 193.625 L 281.136719 184.765625 C 278.730469 182.421875 280.0625 178.34375 283.382812 177.863281 L 295.933594 176.039062 C 297.253906 175.84375 298.390625 175.023438 298.976562 173.828125 L 304.597656 162.445312 C 305.347656 160.9375 306.785156 160.183594 308.230469 160.183594 Z M 308.230469 160.183594 " fill-opacity="1" fill-rule="nonzero"/></svg>