<svg xmlns="http://www.w3.org/2000/svg" xmlns:xlink="http://www.w3.org/1999/xlink" width="500" zoomAndPan="magnify" viewBox="0 0 375 374.999991" height="500" preserveAspectRatio="xMidYMid meet" version="1.0"><defs><clipPath id="35073ba567"><path d="M 59.003906 178.957031 L 76.253906 178.957031 L 76.253906 196.207031 L 59.003906 196.207031 Z M 59.003906 178.957031 " clip-rule="nonzero"/></clipPath></defs><g clip-path="url(#35073ba567)"><path fill="#ffce00" d="M 67.542969 178.957031 C 72.257812 178.957031 76.078125 182.78125 76.078125 187.496094 C 76.078125 192.210938 72.257812 196.03125 67.542969 196.03125 C 62.828125 196.03125 59.003906 192.210938 59.003906 187.496094 C 59.003906 182.78125 62.828125 178.957031 67.542969 178.957031 Z M 67.542969 178.957031 " fill-opacity="1" fill-rule="evenodd"/></g><path fill="#ffbe0d" d="M 84.988281 193.644531 C 84.035156 194.574219 83.597656 195.910156 83.824219 197.226562 L 85.96875 209.730469 C 86.539062 213.035156 83.0625 215.554688 80.097656 213.992188 L 68.867188 208.085938 C 67.6875 207.46875 66.277344 207.46875 65.097656 208.085938 L 53.867188 213.992188 C 51.199219 215.398438 48.117188 213.5 47.949219 210.695312 C 47.921875 210.382812 47.941406 210.0625 47.996094 209.730469 L 50.144531 197.226562 C 50.363281 195.910156 49.925781 194.574219 48.976562 193.644531 L 39.890625 184.785156 C 37.484375 182.445312 38.816406 178.367188 42.136719 177.882812 L 54.691406 176.0625 C 56.007812 175.867188 57.144531 175.042969 57.730469 173.847656 L 63.355469 162.46875 C 64.835938 159.460938 69.121094 159.460938 70.609375 162.46875 L 76.226562 173.847656 C 76.8125 175.039062 77.949219 175.867188 79.265625 176.0625 L 91.828125 177.882812 C 92.144531 177.929688 92.445312 178.011719 92.722656 178.117188 C 95.371094 179.128906 96.246094 182.664062 94.070312 184.785156 Z M 84.988281 193.644531 " fill-opacity="1" fill-rule="nonzero"/><path fill="#ffbe0d" d="M 145.304688 193.644531 C 144.347656 194.574219 143.910156 195.910156 144.136719 197.226562 L 146.28125 209.730469 C 146.851562 213.035156 143.375 215.554688 140.410156 213.992188 L 129.179688 208.085938 C 128 207.46875 126.589844 207.46875 125.410156 208.085938 L 114.179688 213.992188 C 111.511719 215.398438 108.429688 213.5 108.265625 210.695312 C 108.234375 210.382812 108.257812 210.0625 108.3125 209.730469 L 110.457031 197.226562 C 110.679688 195.910156 110.242188 194.574219 109.292969 193.644531 L 100.207031 184.785156 C 97.800781 182.445312 99.132812 178.367188 102.449219 177.882812 L 115.003906 176.0625 C 116.320312 175.867188 117.457031 175.042969 118.046875 173.847656 L 123.667969 162.46875 C 125.152344 159.460938 129.433594 159.460938 130.925781 162.46875 L 136.539062 173.847656 C 137.128906 175.039062 138.265625 175.867188 139.582031 176.0625 L 152.140625 177.882812 C 152.460938 177.929688 152.757812 178.011719 153.035156 178.117188 C 155.683594 179.128906 156.558594 182.664062 154.382812 184.785156 Z M 145.304688 193.644531 " fill-opacity="1" fill-rule="nonzero"/><path fill="#ffbe0d" d="M 205.613281 193.644531 C 204.65625 194.574219 204.222656 195.910156 204.449219 197.226562 L 206.59375 209.730469 C 207.160156 213.035156 203.6875 215.554688 200.722656 213.992188 L 189.492188 208.085938 C 188.3125 207.46875 186.902344 207.46875 185.722656 208.085938 L 174.492188 213.992188 C 171.820312 215.398438 168.738281 213.5 168.574219 210.695312 C 168.546875 210.382812 168.566406 210.0625 168.621094 209.730469 L 170.769531 197.226562 C 170.988281 195.910156 170.550781 194.574219 169.601562 193.644531 L 160.515625 184.785156 C 158.109375 182.445312 159.441406 178.367188 162.761719 177.882812 L 175.316406 176.0625 C 176.632812 175.867188 177.769531 175.042969 178.355469 173.847656 L 183.976562 162.46875 C 185.460938 159.460938 189.746094 159.460938 191.234375 162.46875 L 196.847656 173.847656 C 197.4375 175.039062 198.574219 175.867188 199.890625 176.0625 L 212.453125 177.882812 C 212.769531 177.929688 213.070312 178.011719 213.347656 178.117188 C 215.996094 179.128906 216.867188 182.664062 214.691406 184.785156 Z M 205.613281 193.644531 " fill-opacity="1" fill-rule="nonzero"/><path fill="#ffbe0d" d="M 265.929688 193.644531 C 264.972656 194.574219 264.535156 195.910156 264.761719 197.226562 L 266.90625 209.730469 C 267.476562 213.035156 264 215.554688 261.035156 213.992188 L 249.804688 208.085938 C 248.625 207.46875 247.214844 207.46875 246.035156 208.085938 L 234.804688 213.992188 C 232.136719 215.398438 229.054688 213.5 228.886719 210.695312 C 228.859375 210.382812 228.878906 210.0625 228.933594 209.730469 L 231.082031 197.226562 C 231.300781 195.910156 230.867188 194.574219 229.917969 193.644531 L 220.832031 184.785156 C 218.421875 182.445312 219.753906 178.367188 223.074219 177.882812 L 235.628906 176.0625 C 236.945312 175.867188 238.082031 175.042969 238.671875 173.847656 L 244.292969 162.46875 C 245.773438 159.460938 250.058594 159.460938 251.546875 162.46875 L 257.164062 173.847656 C 257.75 175.039062 258.886719 175.867188 260.203125 176.0625 L 272.765625 177.882812 C 273.082031 177.929688 273.382812 178.011719 273.660156 178.117188 C 276.308594 179.128906 277.183594 182.664062 275.007812 184.785156 Z M 265.929688 193.644531 " fill-opacity="1" fill-rule="nonzero"/><path fill="#ffbe0d" d="M 308.234375 162.984375 C 308.46875 162.984375 309.058594 163.054688 309.375 163.695312 L 314.992188 175.078125 C 315.984375 177.085938 317.898438 178.480469 320.121094 178.808594 L 332.664062 180.625 C 332.808594 180.648438 332.898438 180.675781 332.945312 180.695312 C 332.960938 180.699219 332.972656 180.707031 332.984375 180.710938 C 333.375 180.855469 333.660156 181.207031 333.75 181.640625 C 333.816406 181.945312 333.800781 182.394531 333.382812 182.800781 L 324.308594 191.65625 C 322.691406 193.226562 321.957031 195.484375 322.339844 197.695312 L 324.484375 210.203125 C 324.554688 210.59375 324.464844 210.9375 324.222656 211.222656 C 323.96875 211.519531 323.601562 211.699219 323.234375 211.699219 C 323.035156 211.699219 322.835938 211.648438 322.636719 211.542969 L 311.402344 205.636719 C 310.429688 205.125 309.332031 204.855469 308.234375 204.855469 C 307.132812 204.855469 306.035156 205.125 305.058594 205.640625 L 293.824219 211.546875 C 293.628906 211.652344 293.429688 211.703125 293.234375 211.703125 C 292.65625 211.703125 292.007812 211.230469 291.964844 210.535156 C 291.964844 210.507812 291.960938 210.480469 291.957031 210.453125 C 291.953125 210.425781 291.953125 210.347656 291.976562 210.203125 L 294.128906 197.691406 C 294.5 195.480469 293.765625 193.226562 292.164062 191.660156 L 283.074219 182.800781 C 282.582031 182.320312 282.660156 181.78125 282.75 181.5 C 282.824219 181.273438 283.070312 180.730469 283.78125 180.625 L 296.339844 178.804688 C 298.554688 178.476562 300.472656 177.082031 301.464844 175.078125 L 307.085938 163.691406 C 307.394531 163.078125 307.9375 162.984375 308.234375 162.984375 M 308.234375 160.214844 C 306.789062 160.214844 305.347656 160.964844 304.605469 162.46875 L 298.984375 173.847656 C 298.394531 175.039062 297.257812 175.867188 295.941406 176.0625 L 283.390625 177.882812 C 280.070312 178.367188 278.738281 182.445312 281.144531 184.785156 L 290.230469 193.644531 C 291.179688 194.574219 291.617188 195.910156 291.394531 197.226562 L 289.25 209.730469 C 289.195312 210.0625 289.171875 210.382812 289.203125 210.695312 C 289.328125 212.847656 291.175781 214.46875 293.234375 214.46875 C 293.859375 214.46875 294.503906 214.320312 295.125 213.992188 L 306.351562 208.085938 C 306.941406 207.777344 307.589844 207.625 308.234375 207.625 C 308.882812 207.625 309.53125 207.777344 310.121094 208.085938 L 321.347656 213.992188 C 321.96875 214.316406 322.613281 214.464844 323.234375 214.464844 C 325.589844 214.464844 327.667969 212.34375 327.21875 209.726562 L 325.078125 197.222656 C 324.847656 195.90625 325.285156 194.570312 326.242188 193.640625 L 335.320312 184.78125 C 337.496094 182.660156 336.625 179.128906 333.972656 178.113281 C 333.695312 178.003906 333.402344 177.925781 333.078125 177.878906 L 320.519531 176.058594 C 319.203125 175.863281 318.066406 175.039062 317.476562 173.847656 L 311.863281 162.464844 C 311.117188 160.964844 309.671875 160.214844 308.234375 160.214844 Z M 308.234375 160.214844 " fill-opacity="1" fill-rule="nonzero"/><path fill="#ffce00" d="M 92.726562 178.117188 C 82.785156 194.171875 66.804688 206.09375 47.949219 210.695312 C 47.921875 210.382812 47.941406 210.0625 47.996094 209.730469 L 50.144531 197.226562 C 50.363281 195.910156 49.925781 194.574219 48.976562 193.644531 L 39.890625 184.785156 C 37.484375 182.445312 38.816406 178.367188 42.136719 177.882812 L 54.691406 176.0625 C 56.007812 175.867188 57.144531 175.042969 57.730469 173.847656 L 63.355469 162.46875 C 64.835938 159.460938 69.121094 159.460938 70.609375 162.46875 L 76.226562 173.847656 C 76.8125 175.039062 77.949219 175.867188 79.265625 176.0625 L 91.828125 177.882812 C 92.152344 177.929688 92.449219 178.011719 92.726562 178.117188 Z M 92.726562 178.117188 " fill-opacity="1" fill-rule="nonzero"/><path fill="#ffce00" d="M 153.039062 178.117188 C 143.097656 194.171875 127.117188 206.09375 108.265625 210.695312 C 108.234375 210.382812 108.257812 210.0625 108.3125 209.730469 L 110.457031 197.226562 C 110.679688 195.910156 110.242188 194.574219 109.292969 193.644531 L 100.207031 184.785156 C 97.800781 182.445312 99.132812 178.367188 102.449219 177.882812 L 115.003906 176.0625 C 116.320312 175.867188 117.457031 175.042969 118.046875 173.847656 L 123.667969 162.46875 C 125.152344 159.460938 129.433594 159.460938 130.925781 162.46875 L 136.539062 173.847656 C 137.128906 175.039062 138.265625 175.867188 139.582031 176.0625 L 152.140625 177.882812 C 152.460938 177.929688 152.761719 178.011719 153.039062 178.117188 Z M 153.039062 178.117188 " fill-opacity="1" fill-rule="nonzero"/><path fill="#ffce00" d="M 213.351562 178.117188 C 203.410156 194.171875 187.429688 206.09375 168.574219 210.695312 C 168.546875 210.382812 168.566406 210.0625 168.621094 209.730469 L 170.769531 197.226562 C 170.988281 195.910156 170.550781 194.574219 169.601562 193.644531 L 160.515625 184.785156 C 158.109375 182.445312 159.441406 178.367188 162.761719 177.882812 L 175.316406 176.0625 C 176.632812 175.867188 177.769531 175.042969 178.355469 173.847656 L 183.976562 162.46875 C 185.460938 159.460938 189.746094 159.460938 191.234375 162.46875 L 196.847656 173.847656 C 197.4375 175.039062 198.574219 175.867188 199.890625 176.0625 L 212.453125 177.882812 C 212.773438 177.929688 213.074219 178.011719 213.351562 178.117188 Z M 213.351562 178.117188 " fill-opacity="1" fill-rule="nonzero"/><path fill="#ffce00" d="M 273.660156 178.117188 C 263.71875 194.171875 247.738281 206.09375 228.882812 210.695312 C 228.855469 210.382812 228.878906 210.0625 228.929688 209.730469 L 231.078125 197.226562 C 231.296875 195.910156 230.863281 194.574219 229.914062 193.644531 L 220.828125 184.785156 C 218.421875 182.445312 219.75 178.367188 223.070312 177.882812 L 235.625 176.0625 C 236.941406 175.867188 238.078125 175.042969 238.667969 173.847656 L 244.289062 162.46875 C 245.773438 159.460938 250.054688 159.460938 251.546875 162.46875 L 257.160156 173.847656 C 257.746094 175.039062 258.882812 175.867188 260.203125 176.0625 L 272.765625 177.882812 C 273.085938 177.929688 273.382812 178.011719 273.660156 178.117188 Z M 273.660156 178.117188 " fill-opacity="1" fill-rule="nonzero"/></svg>