<svg xmlns="http://www.w3.org/2000/svg" xmlns:xlink="http://www.w3.org/1999/xlink" width="500" zoomAndPan="magnify" viewBox="0 0 375 374.999991" height="500" preserveAspectRatio="xMidYMid meet" version="1.0"><defs><clipPath id="5d365a1a16"><path d="M 59.003906 178.957031 L 76.253906 178.957031 L 76.253906 196.207031 L 59.003906 196.207031 Z M 59.003906 178.957031 " clip-rule="nonzero"/></clipPath></defs><g clip-path="url(#5d365a1a16)"><path fill="#ffce00" d="M 67.542969 178.957031 C 72.257812 178.957031 76.078125 182.78125 76.078125 187.496094 C 76.078125 192.210938 72.257812 196.03125 67.542969 196.03125 C 62.828125 196.03125 59.003906 192.210938 59.003906 187.496094 C 59.003906 182.78125 62.828125 178.957031 67.542969 178.957031 Z M 67.542969 178.957031 " fill-opacity="1" fill-rule="evenodd"/></g><path fill="#ffbe0d" d="M 84.988281 193.640625 C 84.035156 194.570312 83.597656 195.90625 83.824219 197.222656 L 85.96875 209.726562 C 86.539062 213.03125 83.0625 215.550781 80.097656 213.988281 L 68.867188 208.082031 C 67.6875 207.464844 66.277344 207.464844 65.097656 208.082031 L 53.867188 213.988281 C 51.199219 215.394531 48.117188 213.5 47.949219 210.691406 C 47.921875 210.378906 47.941406 210.058594 47.996094 209.726562 L 50.144531 197.222656 C 50.363281 195.90625 49.925781 194.570312 48.976562 193.640625 L 39.890625 184.78125 C 37.484375 182.441406 38.816406 178.363281 42.136719 177.878906 L 54.691406 176.058594 C 56.007812 175.863281 57.144531 175.039062 57.730469 173.847656 L 63.355469 162.464844 C 64.835938 159.457031 69.121094 159.457031 70.609375 162.464844 L 76.226562 173.847656 C 76.8125 175.035156 77.949219 175.863281 79.265625 176.058594 L 91.828125 177.878906 C 92.144531 177.925781 92.445312 178.007812 92.722656 178.113281 C 95.371094 179.125 96.246094 182.660156 94.070312 184.78125 Z M 84.988281 193.640625 " fill-opacity="1" fill-rule="nonzero"/><path fill="#ffbe0d" d="M 145.304688 193.640625 C 144.347656 194.570312 143.910156 195.90625 144.136719 197.222656 L 146.28125 209.726562 C 146.851562 213.03125 143.375 215.550781 140.410156 213.988281 L 129.179688 208.082031 C 128 207.464844 126.589844 207.464844 125.410156 208.082031 L 114.179688 213.988281 C 111.511719 215.394531 108.429688 213.5 108.265625 210.691406 C 108.234375 210.378906 108.257812 210.058594 108.3125 209.726562 L 110.457031 197.222656 C 110.679688 195.90625 110.242188 194.570312 109.292969 193.640625 L 100.207031 184.78125 C 97.800781 182.441406 99.132812 178.363281 102.449219 177.878906 L 115.003906 176.058594 C 116.320312 175.863281 117.457031 175.039062 118.046875 173.847656 L 123.667969 162.464844 C 125.152344 159.457031 129.433594 159.457031 130.925781 162.464844 L 136.539062 173.847656 C 137.128906 175.035156 138.265625 175.863281 139.582031 176.058594 L 152.140625 177.878906 C 152.460938 177.925781 152.757812 178.007812 153.035156 178.113281 C 155.683594 179.125 156.558594 182.660156 154.382812 184.78125 Z M 145.304688 193.640625 " fill-opacity="1" fill-rule="nonzero"/><path fill="#ffbe0d" d="M 205.613281 193.640625 C 204.65625 194.570312 204.222656 195.90625 204.449219 197.222656 L 206.59375 209.726562 C 207.160156 213.03125 203.6875 215.550781 200.722656 213.988281 L 189.492188 208.082031 C 188.3125 207.464844 186.902344 207.464844 185.722656 208.082031 L 174.492188 213.988281 C 171.820312 215.394531 168.738281 213.5 168.574219 210.691406 C 168.546875 210.378906 168.566406 210.058594 168.621094 209.726562 L 170.769531 197.222656 C 170.988281 195.90625 170.550781 194.570312 169.601562 193.640625 L 160.515625 184.78125 C 158.109375 182.441406 159.441406 178.363281 162.761719 177.878906 L 175.316406 176.058594 C 176.632812 175.863281 177.769531 175.039062 178.355469 173.847656 L 183.976562 162.464844 C 185.460938 159.457031 189.746094 159.457031 191.234375 162.464844 L 196.847656 173.847656 C 197.4375 175.035156 198.574219 175.863281 199.890625 176.058594 L 212.453125 177.878906 C 212.769531 177.925781 213.070312 178.007812 213.347656 178.113281 C 215.996094 179.125 216.867188 182.660156 214.691406 184.78125 Z M 205.613281 193.640625 " fill-opacity="1" fill-rule="nonzero"/><path fill="#ffbe0d" d="M 265.929688 193.640625 C 264.972656 194.570312 264.535156 195.90625 264.761719 197.222656 L 266.90625 209.726562 C 267.476562 213.03125 264 215.550781 261.035156 213.988281 L 249.804688 208.082031 C 248.625 207.464844 247.214844 207.464844 246.035156 208.082031 L 234.804688 213.988281 C 232.136719 215.394531 229.054688 213.5 228.886719 210.691406 C 228.859375 210.378906 228.878906 210.058594 228.933594 209.726562 L 231.082031 197.222656 C 231.300781 195.90625 230.867188 194.570312 229.917969 193.640625 L 220.832031 184.78125 C 218.421875 182.441406 219.753906 178.363281 223.074219 177.878906 L 235.628906 176.058594 C 236.945312 175.863281 238.082031 175.039062 238.671875 173.847656 L 244.292969 162.464844 C 245.773438 159.457031 250.058594 159.457031 251.546875 162.464844 L 257.164062 173.847656 C 257.75 175.035156 258.886719 175.863281 260.203125 176.058594 L 272.765625 177.878906 C 273.082031 177.925781 273.382812 178.007812 273.660156 178.113281 C 276.308594 179.125 277.183594 182.660156 275.007812 184.78125 Z M 265.929688 193.640625 " fill-opacity="1" fill-rule="nonzero"/><path fill="#ffbe0d" d="M 326.238281 193.640625 C 325.28125 194.570312 324.84375 195.90625 325.074219 197.222656 L 327.214844 209.726562 C 327.785156 213.03125 324.3125 215.550781 321.34375 213.988281 L 310.117188 208.082031 C 308.9375 207.464844 307.523438 207.464844 306.34375 208.082031 L 295.117188 213.988281 C 292.445312 215.394531 289.363281 213.5 289.199219 210.691406 C 289.167969 210.378906 289.191406 210.058594 289.246094 209.726562 L 291.390625 197.222656 C 291.613281 195.90625 291.175781 194.570312 290.226562 193.640625 L 281.140625 184.78125 C 278.734375 182.441406 280.066406 178.363281 283.386719 177.878906 L 295.9375 176.058594 C 297.253906 175.863281 298.390625 175.039062 298.980469 173.847656 L 304.601562 162.464844 C 306.085938 159.457031 310.367188 159.457031 311.859375 162.464844 L 317.472656 173.847656 C 318.0625 175.035156 319.199219 175.863281 320.515625 176.058594 L 333.074219 177.878906 C 333.394531 177.925781 333.691406 178.007812 333.972656 178.113281 C 336.621094 179.125 337.492188 182.660156 335.316406 184.78125 Z M 326.238281 193.640625 " fill-opacity="1" fill-rule="nonzero"/><path fill="#ffce00" d="M 92.726562 178.113281 C 82.785156 194.167969 66.804688 206.089844 47.949219 210.691406 C 47.921875 210.378906 47.941406 210.058594 47.996094 209.726562 L 50.144531 197.222656 C 50.363281 195.90625 49.925781 194.570312 48.976562 193.640625 L 39.890625 184.78125 C 37.484375 182.441406 38.816406 178.363281 42.136719 177.878906 L 54.691406 176.058594 C 56.007812 175.863281 57.144531 175.039062 57.730469 173.847656 L 63.355469 162.464844 C 64.835938 159.457031 69.121094 159.457031 70.609375 162.464844 L 76.226562 173.847656 C 76.8125 175.035156 77.949219 175.863281 79.265625 176.058594 L 91.828125 177.878906 C 92.152344 177.925781 92.449219 178.003906 92.726562 178.113281 Z M 92.726562 178.113281 " fill-opacity="1" fill-rule="nonzero"/><path fill="#ffce00" d="M 153.039062 178.113281 C 143.097656 194.167969 127.117188 206.089844 108.265625 210.691406 C 108.234375 210.378906 108.257812 210.058594 108.3125 209.726562 L 110.457031 197.222656 C 110.679688 195.90625 110.242188 194.570312 109.292969 193.640625 L 100.207031 184.78125 C 97.800781 182.441406 99.132812 178.363281 102.449219 177.878906 L 115.003906 176.058594 C 116.320312 175.863281 117.457031 175.039062 118.046875 173.847656 L 123.667969 162.464844 C 125.152344 159.457031 129.433594 159.457031 130.925781 162.464844 L 136.539062 173.847656 C 137.128906 175.035156 138.265625 175.863281 139.582031 176.058594 L 152.140625 177.878906 C 152.460938 177.925781 152.761719 178.003906 153.039062 178.113281 Z M 153.039062 178.113281 " fill-opacity="1" fill-rule="nonzero"/><path fill="#ffce00" d="M 213.351562 178.113281 C 203.410156 194.167969 187.429688 206.089844 168.574219 210.691406 C 168.546875 210.378906 168.566406 210.058594 168.621094 209.726562 L 170.769531 197.222656 C 170.988281 195.90625 170.550781 194.570312 169.601562 193.640625 L 160.515625 184.78125 C 158.109375 182.441406 159.441406 178.363281 162.761719 177.878906 L 175.316406 176.058594 C 176.632812 175.863281 177.769531 175.039062 178.355469 173.847656 L 183.976562 162.464844 C 185.460938 159.457031 189.746094 159.457031 191.234375 162.464844 L 196.847656 173.847656 C 197.4375 175.035156 198.574219 175.863281 199.890625 176.058594 L 212.453125 177.878906 C 212.773438 177.925781 213.074219 178.003906 213.351562 178.113281 Z M 213.351562 178.113281 " fill-opacity="1" fill-rule="nonzero"/><path fill="#ffce00" d="M 273.660156 178.113281 C 263.71875 194.167969 247.738281 206.089844 228.882812 210.691406 C 228.855469 210.378906 228.878906 210.058594 228.929688 209.726562 L 231.078125 197.222656 C 231.296875 195.90625 230.863281 194.570312 229.914062 193.640625 L 220.828125 184.78125 C 218.421875 182.441406 219.75 178.363281 223.070312 177.878906 L 235.625 176.058594 C 236.941406 175.863281 238.078125 175.039062 238.667969 173.847656 L 244.289062 162.464844 C 245.773438 159.457031 250.054688 159.457031 251.546875 162.464844 L 257.160156 173.847656 C 257.746094 175.035156 258.882812 175.863281 260.203125 176.058594 L 272.761719 177.878906 C 273.085938 177.925781 273.382812 178.003906 273.660156 178.113281 Z M 273.660156 178.113281 " fill-opacity="1" fill-rule="nonzero"/><path fill="#ffce00" d="M 333.972656 178.113281 C 324.035156 194.167969 308.050781 206.089844 289.199219 210.691406 C 289.167969 210.378906 289.191406 210.058594 289.246094 209.726562 L 291.390625 197.222656 C 291.613281 195.90625 291.175781 194.570312 290.226562 193.640625 L 281.140625 184.78125 C 278.734375 182.441406 280.066406 178.363281 283.386719 177.878906 L 295.9375 176.058594 C 297.253906 175.863281 298.390625 175.039062 298.980469 173.847656 L 304.601562 162.464844 C 306.085938 159.457031 310.367188 159.457031 311.859375 162.464844 L 317.472656 173.847656 C 318.0625 175.035156 319.199219 175.863281 320.515625 176.058594 L 333.074219 177.878906 C 333.398438 177.925781 333.695312 178.003906 333.972656 178.113281 Z M 333.972656 178.113281 " fill-opacity="1" fill-rule="nonzero"/></svg>