<svg xmlns="http://www.w3.org/2000/svg" xmlns:xlink="http://www.w3.org/1999/xlink" width="500" zoomAndPan="magnify" viewBox="0 0 375 374.999991" height="500" preserveAspectRatio="xMidYMid meet" version="1.0"><defs><clipPath id="4012903d32"><path d="M 187.5 71.613281 L 219.75 71.613281 L 219.75 103.863281 L 187.5 103.863281 Z M 187.5 71.613281 " clip-rule="nonzero"/></clipPath></defs><path fill="#ff914d" d="M 90.753906 202.160156 L 255.363281 366.769531 C 263.398438 374.804688 276.429688 374.804688 284.464844 366.769531 C 292.5 358.734375 292.5 345.921875 284.464844 337.886719 L 134.1875 187.609375 L 284.464844 37.328125 C 292.5 29.292969 292.5 16.265625 284.464844 8.230469 C 276.429688 0.195312 263.398438 0.195312 255.363281 8.230469 L 90.535156 173.058594 C 82.5 181.09375 82.5 194.125 90.753906 202.160156 Z M 90.753906 202.160156 " fill-opacity="1" fill-rule="evenodd"/><g clip-path="url(#4012903d32)"><path fill="#ff914d" d="M 203.558594 71.613281 C 212.429688 71.613281 219.621094 78.800781 219.621094 87.671875 C 219.621094 96.542969 212.429688 103.734375 203.558594 103.734375 C 194.691406 103.734375 187.5 96.542969 187.5 87.671875 C 187.5 78.800781 194.691406 71.613281 203.558594 71.613281 Z M 203.558594 71.613281 " fill-opacity="1" fill-rule="evenodd"/></g></svg>