<svg xmlns="http://www.w3.org/2000/svg" xmlns:xlink="http://www.w3.org/1999/xlink" width="500" zoomAndPan="magnify" viewBox="0 0 375 374.999991" height="500" preserveAspectRatio="xMidYMid meet" version="1.0"><defs><clipPath id="ce086ac91b"><path d="M 1 71.25 L 374 71.25 L 374 303.75 L 1 303.75 Z M 1 71.25 " clip-rule="nonzero"/></clipPath></defs><path fill="#ffffff" d="M 238.207031 187.5 C 238.207031 189.160156 238.125 190.816406 237.960938 192.464844 C 237.800781 194.117188 237.558594 195.757812 237.234375 197.386719 C 236.910156 199.011719 236.507812 200.621094 236.023438 202.207031 C 235.542969 203.796875 234.984375 205.359375 234.351562 206.890625 C 233.714844 208.425781 233.007812 209.921875 232.222656 211.386719 C 231.441406 212.847656 230.589844 214.269531 229.667969 215.652344 C 228.746094 217.03125 227.757812 218.363281 226.707031 219.644531 C 225.652344 220.929688 224.539062 222.15625 223.367188 223.328125 C 222.191406 224.503906 220.964844 225.617188 219.679688 226.667969 C 218.398438 227.722656 217.066406 228.707031 215.6875 229.632812 C 214.308594 230.554688 212.886719 231.40625 211.421875 232.1875 C 209.957031 232.96875 208.460938 233.679688 206.925781 234.3125 C 205.394531 234.949219 203.832031 235.507812 202.246094 235.988281 C 200.65625 236.46875 199.050781 236.875 197.421875 237.195312 C 195.792969 237.519531 194.15625 237.765625 192.503906 237.925781 C 190.851562 238.089844 189.195312 238.171875 187.535156 238.171875 C 185.875 238.171875 184.222656 238.089844 182.570312 237.925781 C 180.917969 237.765625 179.277344 237.519531 177.652344 237.195312 C 176.023438 236.875 174.414062 236.46875 172.828125 235.988281 C 171.238281 235.507812 169.679688 234.949219 168.144531 234.3125 C 166.613281 233.679688 165.113281 232.96875 163.652344 232.1875 C 162.1875 231.40625 160.765625 230.554688 159.386719 229.632812 C 158.003906 228.707031 156.675781 227.722656 155.390625 226.667969 C 154.109375 225.617188 152.878906 224.503906 151.707031 223.328125 C 150.535156 222.15625 149.421875 220.929688 148.367188 219.644531 C 147.316406 218.363281 146.328125 217.03125 145.40625 215.652344 C 144.484375 214.269531 143.632812 212.847656 142.847656 211.386719 C 142.066406 209.921875 141.359375 208.425781 140.722656 206.890625 C 140.085938 205.359375 139.53125 203.796875 139.046875 202.207031 C 138.566406 200.621094 138.164062 199.011719 137.839844 197.386719 C 137.515625 195.757812 137.273438 194.117188 137.109375 192.464844 C 136.945312 190.816406 136.867188 189.160156 136.867188 187.5 C 136.867188 185.839844 136.945312 184.183594 137.109375 182.535156 C 137.273438 180.882812 137.515625 179.242188 137.839844 177.613281 C 138.164062 175.988281 138.566406 174.378906 139.046875 172.792969 C 139.53125 171.203125 140.085938 169.640625 140.722656 168.109375 C 141.359375 166.574219 142.066406 165.078125 142.847656 163.613281 C 143.632812 162.152344 144.484375 160.730469 145.40625 159.347656 C 146.328125 157.96875 147.316406 156.636719 148.367188 155.355469 C 149.421875 154.070312 150.535156 152.84375 151.707031 151.671875 C 152.878906 150.496094 154.109375 149.382812 155.390625 148.332031 C 156.675781 147.277344 158.003906 146.292969 159.386719 145.367188 C 160.765625 144.445312 162.1875 143.59375 163.652344 142.8125 C 165.113281 142.03125 166.613281 141.320312 168.144531 140.6875 C 169.679688 140.050781 171.238281 139.492188 172.828125 139.011719 C 174.414062 138.53125 176.023438 138.125 177.652344 137.804688 C 179.277344 137.480469 180.917969 137.234375 182.570312 137.074219 C 184.222656 136.910156 185.875 136.828125 187.535156 136.828125 C 189.195312 136.828125 190.851562 136.910156 192.503906 137.074219 C 194.15625 137.234375 195.792969 137.480469 197.421875 137.804688 C 199.050781 138.125 200.65625 138.53125 202.246094 139.011719 C 203.832031 139.492188 205.394531 140.050781 206.925781 140.6875 C 208.460938 141.320312 209.957031 142.03125 211.421875 142.8125 C 212.886719 143.59375 214.308594 144.445312 215.6875 145.367188 C 217.066406 146.292969 218.398438 147.277344 219.679688 148.332031 C 220.964844 149.382812 222.191406 150.496094 223.367188 151.671875 C 224.539062 152.84375 225.652344 154.070312 226.707031 155.355469 C 227.757812 156.636719 228.746094 157.96875 229.667969 159.347656 C 230.589844 160.730469 231.441406 162.152344 232.222656 163.613281 C 233.007812 165.078125 233.714844 166.574219 234.351562 168.109375 C 234.984375 169.640625 235.542969 171.203125 236.023438 172.792969 C 236.507812 174.378906 236.910156 175.988281 237.234375 177.613281 C 237.558594 179.242188 237.800781 180.882812 237.960938 182.535156 C 238.125 184.183594 238.207031 185.839844 238.207031 187.5 Z M 238.207031 187.5 " fill-opacity="1" fill-rule="nonzero"/><g clip-path="url(#ce086ac91b)"><path fill="#ffffff" d="M 369.257812 173.558594 C 325.683594 109.03125 256.609375 71.25 187.535156 71.722656 C 118.460938 71.25 49.386719 109.03125 5.816406 173.558594 C 5.121094 174.582031 4.507812 175.648438 3.976562 176.765625 C 3.441406 177.878906 2.996094 179.027344 2.632812 180.207031 C 2.269531 181.390625 1.996094 182.589844 1.8125 183.8125 C 1.628906 185.035156 1.539062 186.265625 1.539062 187.5 C 1.539062 188.734375 1.628906 189.964844 1.8125 191.1875 C 1.996094 192.410156 2.269531 193.609375 2.632812 194.792969 C 2.996094 195.972656 3.441406 197.121094 3.976562 198.234375 C 4.507812 199.351562 5.121094 200.417969 5.816406 201.441406 C 49.386719 265.96875 118.460938 303.75 187.535156 303.277344 C 256.609375 303.75 325.683594 265.96875 369.257812 201.441406 C 369.949219 200.417969 370.5625 199.351562 371.097656 198.234375 C 371.628906 197.121094 372.078125 195.972656 372.441406 194.792969 C 372.804688 193.609375 373.074219 192.410156 373.257812 191.1875 C 373.441406 189.964844 373.535156 188.734375 373.535156 187.5 C 373.535156 186.265625 373.441406 185.035156 373.257812 183.8125 C 373.074219 182.589844 372.804688 181.390625 372.441406 180.207031 C 372.078125 179.027344 371.628906 177.878906 371.097656 176.765625 C 370.5625 175.648438 369.949219 174.582031 369.257812 173.558594 Z M 187.535156 265.78125 C 186.253906 265.78125 184.976562 265.75 183.695312 265.683594 C 182.414062 265.621094 181.136719 265.527344 179.863281 265.402344 C 178.589844 265.277344 177.316406 265.121094 176.050781 264.933594 C 174.78125 264.746094 173.519531 264.527344 172.265625 264.277344 C 171.007812 264.027344 169.757812 263.746094 168.515625 263.433594 C 167.273438 263.121094 166.039062 262.78125 164.8125 262.410156 C 163.585938 262.039062 162.371094 261.636719 161.164062 261.203125 C 159.957031 260.773438 158.761719 260.3125 157.578125 259.820312 C 156.394531 259.332031 155.226562 258.8125 154.066406 258.265625 C 152.910156 257.714844 151.765625 257.140625 150.636719 256.535156 C 149.503906 255.933594 148.390625 255.300781 147.292969 254.644531 C 146.195312 253.984375 145.113281 253.300781 144.046875 252.585938 C 142.980469 251.875 141.933594 251.136719 140.90625 250.375 C 139.875 249.613281 138.867188 248.824219 137.875 248.011719 C 136.886719 247.199219 135.914062 246.363281 134.964844 245.5 C 134.015625 244.640625 133.089844 243.757812 132.183594 242.851562 C 131.277344 241.945312 130.394531 241.019531 129.535156 240.070312 C 128.675781 239.121094 127.839844 238.152344 127.023438 237.160156 C 126.210938 236.167969 125.425781 235.160156 124.660156 234.132812 C 123.898438 233.101562 123.160156 232.054688 122.449219 230.988281 C 121.738281 229.925781 121.050781 228.84375 120.394531 227.742188 C 119.734375 226.644531 119.105469 225.53125 118.5 224.402344 C 117.894531 223.269531 117.320312 222.128906 116.773438 220.96875 C 116.222656 219.8125 115.707031 218.640625 115.214844 217.457031 C 114.726562 216.273438 114.265625 215.078125 113.832031 213.871094 C 113.402344 212.664062 113 211.449219 112.628906 210.222656 C 112.253906 208.996094 111.914062 207.761719 111.601562 206.519531 C 111.292969 205.277344 111.011719 204.027344 110.761719 202.773438 C 110.511719 201.515625 110.292969 200.253906 110.105469 198.984375 C 109.914062 197.71875 109.757812 196.449219 109.632812 195.171875 C 109.507812 193.898438 109.414062 192.621094 109.351562 191.339844 C 109.289062 190.0625 109.257812 188.78125 109.257812 187.5 C 109.257812 186.21875 109.289062 184.9375 109.351562 183.660156 C 109.414062 182.378906 109.507812 181.101562 109.632812 179.828125 C 109.757812 178.550781 109.914062 177.28125 110.105469 176.015625 C 110.292969 174.746094 110.511719 173.484375 110.761719 172.226562 C 111.011719 170.972656 111.292969 169.722656 111.601562 168.480469 C 111.914062 167.238281 112.253906 166.003906 112.628906 164.777344 C 113 163.550781 113.402344 162.335938 113.832031 161.128906 C 114.265625 159.921875 114.726562 158.726562 115.214844 157.542969 C 115.707031 156.359375 116.222656 155.1875 116.773438 154.03125 C 117.320312 152.871094 117.894531 151.730469 118.5 150.597656 C 119.105469 149.46875 119.734375 148.355469 120.394531 147.257812 C 121.050781 146.15625 121.738281 145.074219 122.449219 144.011719 C 123.160156 142.945312 123.898438 141.898438 124.660156 140.867188 C 125.425781 139.839844 126.210938 138.832031 127.023438 137.839844 C 127.839844 136.847656 128.675781 135.878906 129.535156 134.929688 C 130.394531 133.980469 131.277344 133.054688 132.183594 132.148438 C 133.089844 131.242188 134.015625 130.359375 134.964844 129.5 C 135.914062 128.636719 136.886719 127.800781 137.875 126.988281 C 138.867188 126.175781 139.875 125.386719 140.90625 124.625 C 141.933594 123.863281 142.980469 123.125 144.046875 122.414062 C 145.113281 121.699219 146.195312 121.015625 147.292969 120.355469 C 148.390625 119.699219 149.503906 119.066406 150.636719 118.464844 C 151.765625 117.859375 152.910156 117.285156 154.066406 116.734375 C 155.226562 116.1875 156.394531 115.667969 157.578125 115.179688 C 158.761719 114.6875 159.957031 114.226562 161.164062 113.796875 C 162.371094 113.363281 163.585938 112.960938 164.8125 112.589844 C 166.039062 112.21875 167.273438 111.878906 168.515625 111.566406 C 169.757812 111.253906 171.007812 110.972656 172.265625 110.722656 C 173.519531 110.472656 174.78125 110.253906 176.050781 110.066406 C 177.316406 109.878906 178.589844 109.722656 179.863281 109.597656 C 181.136719 109.472656 182.414062 109.378906 183.695312 109.3125 C 184.976562 109.25 186.253906 109.21875 187.535156 109.21875 C 188.816406 109.21875 190.097656 109.25 191.378906 109.3125 C 192.65625 109.378906 193.933594 109.472656 195.210938 109.597656 C 196.484375 109.722656 197.753906 109.878906 199.023438 110.066406 C 200.289062 110.253906 201.550781 110.472656 202.808594 110.722656 C 204.0625 110.972656 205.3125 111.253906 206.558594 111.566406 C 207.800781 111.878906 209.035156 112.21875 210.261719 112.589844 C 211.484375 112.960938 212.703125 113.363281 213.90625 113.796875 C 215.113281 114.226562 216.308594 114.6875 217.492188 115.179688 C 218.675781 115.667969 219.847656 116.1875 221.003906 116.734375 C 222.164062 117.285156 223.308594 117.859375 224.4375 118.464844 C 225.566406 119.066406 226.679688 119.699219 227.78125 120.355469 C 228.878906 121.015625 229.960938 121.699219 231.027344 122.414062 C 232.089844 123.125 233.136719 123.863281 234.167969 124.625 C 235.195312 125.386719 236.207031 126.175781 237.195312 126.988281 C 238.1875 127.800781 239.15625 128.636719 240.105469 129.5 C 241.054688 130.359375 241.984375 131.242188 242.886719 132.148438 C 243.792969 133.054688 244.675781 133.980469 245.539062 134.929688 C 246.398438 135.878906 247.234375 136.847656 248.046875 137.839844 C 248.859375 138.832031 249.648438 139.839844 250.410156 140.867188 C 251.175781 141.898438 251.910156 142.945312 252.625 144.011719 C 253.335938 145.074219 254.019531 146.15625 254.679688 147.257812 C 255.335938 148.355469 255.96875 149.46875 256.574219 150.597656 C 257.175781 151.730469 257.753906 152.871094 258.300781 154.03125 C 258.847656 155.1875 259.367188 156.359375 259.855469 157.542969 C 260.347656 158.726562 260.808594 159.921875 261.238281 161.128906 C 261.671875 162.335938 262.074219 163.550781 262.445312 164.777344 C 262.816406 166.003906 263.160156 167.238281 263.46875 168.480469 C 263.78125 169.722656 264.0625 170.972656 264.3125 172.226562 C 264.5625 173.484375 264.78125 174.746094 264.96875 176.015625 C 265.15625 177.28125 265.3125 178.550781 265.4375 179.828125 C 265.566406 181.101562 265.660156 182.378906 265.722656 183.660156 C 265.785156 184.9375 265.816406 186.21875 265.816406 187.5 C 265.816406 188.78125 265.785156 190.0625 265.722656 191.339844 C 265.660156 192.621094 265.566406 193.898438 265.4375 195.171875 C 265.3125 196.449219 265.15625 197.71875 264.96875 198.984375 C 264.78125 200.253906 264.5625 201.515625 264.3125 202.773438 C 264.0625 204.027344 263.78125 205.277344 263.46875 206.519531 C 263.160156 207.761719 262.816406 208.996094 262.445312 210.222656 C 262.074219 211.449219 261.671875 212.664062 261.238281 213.871094 C 260.808594 215.078125 260.347656 216.273438 259.855469 217.457031 C 259.367188 218.640625 258.847656 219.8125 258.300781 220.96875 C 257.753906 222.128906 257.175781 223.269531 256.574219 224.402344 C 255.96875 225.53125 255.335938 226.644531 254.679688 227.742188 C 254.019531 228.84375 253.335938 229.925781 252.625 230.988281 C 251.910156 232.054688 251.175781 233.101562 250.410156 234.132812 C 249.648438 235.160156 248.859375 236.167969 248.046875 237.160156 C 247.234375 238.152344 246.398438 239.121094 245.539062 240.070312 C 244.675781 241.019531 243.792969 241.945312 242.886719 242.851562 C 241.984375 243.757812 241.054688 244.640625 240.105469 245.5 C 239.15625 246.363281 238.1875 247.199219 237.195312 248.011719 C 236.207031 248.824219 235.195312 249.613281 234.167969 250.375 C 233.136719 251.136719 232.089844 251.875 231.027344 252.585938 C 229.960938 253.300781 228.878906 253.984375 227.78125 254.644531 C 226.679688 255.300781 225.566406 255.933594 224.4375 256.535156 C 223.308594 257.140625 222.164062 257.714844 221.003906 258.265625 C 219.847656 258.8125 218.675781 259.332031 217.492188 259.820312 C 216.308594 260.3125 215.113281 260.773438 213.90625 261.203125 C 212.703125 261.636719 211.484375 262.039062 210.257812 262.410156 C 209.035156 262.78125 207.800781 263.121094 206.558594 263.433594 C 205.3125 263.746094 204.0625 264.027344 202.808594 264.277344 C 201.550781 264.527344 200.289062 264.746094 199.023438 264.933594 C 197.753906 265.121094 196.484375 265.277344 195.210938 265.402344 C 193.933594 265.527344 192.65625 265.621094 191.378906 265.683594 C 190.097656 265.75 188.816406 265.78125 187.535156 265.78125 Z M 187.535156 265.78125 " fill-opacity="1" fill-rule="nonzero"/></g></svg>