<svg xmlns="http://www.w3.org/2000/svg" xmlns:xlink="http://www.w3.org/1999/xlink" width="500" zoomAndPan="magnify" viewBox="0 0 375 374.999991" height="500" preserveAspectRatio="xMidYMid meet" version="1.0"><defs><clipPath id="d45feeebec"><path d="M 71 71.953125 L 375 71.953125 L 375 302.953125 L 71 302.953125 Z M 71 71.953125 " clip-rule="nonzero"/></clipPath></defs><path fill="#ffffff" d="M 103.390625 241.6875 C 87.203125 234.605469 73.261719 226.3125 62.046875 218.597656 C 45.503906 207.214844 32.71875 195.675781 24.488281 187.507812 C 32.71875 179.335938 45.507812 167.792969 62.0625 156.402344 C 77.367188 145.871094 97.753906 134.269531 121.980469 126.140625 C 106.324219 142.832031 97.734375 164.503906 97.734375 187.496094 C 97.734375 204.25 102.300781 220.304688 110.832031 234.242188 L 123.996094 221.078125 C 118.671875 211.050781 115.648438 199.621094 115.648438 187.496094 C 115.648438 147.886719 147.867188 115.65625 187.472656 115.644531 L 187.539062 115.644531 C 199.648438 115.648438 211.066406 118.671875 221.082031 123.988281 L 241.113281 103.957031 C 223.34375 99.578125 205.394531 97.488281 187.511719 97.730469 C 161.691406 97.375 135.757812 101.886719 110.417969 111.132812 C 90.226562 118.503906 70.375 128.882812 51.417969 141.980469 C 19.566406 163.992188 1.226562 186.027344 0.0546875 187.457031 L 0 187.5 C 0.769531 188.441406 19.164062 210.746094 51.40625 233.023438 C 63.875 241.640625 76.734375 249.070312 89.824219 255.253906 Z M 103.390625 241.6875 " fill-opacity="1" fill-rule="nonzero"/><path fill="#ffffff" d="M 142.207031 187.5 C 142.207031 192.148438 142.914062 196.632812 144.21875 200.855469 L 160.253906 184.820312 C 161.523438 171.855469 171.859375 161.515625 184.824219 160.253906 L 200.859375 144.214844 C 196.636719 142.90625 192.148438 142.207031 187.503906 142.207031 C 162.527344 142.207031 142.207031 162.523438 142.207031 187.5 Z M 142.207031 187.5 " fill-opacity="1" fill-rule="nonzero"/><g clip-path="url(#d45feeebec)"><path fill="#ffffff" d="M 375.007812 187.503906 C 374.238281 186.5625 355.839844 164.257812 323.601562 141.980469 C 307.34375 130.746094 290.425781 121.519531 273.199219 114.472656 L 303.015625 84.65625 L 290.347656 71.988281 L 71.992188 290.347656 L 84.660156 303.015625 L 120.414062 267.261719 C 141.628906 273.921875 163.1875 277.292969 184.6875 277.292969 C 185.625 277.292969 186.5625 277.285156 187.496094 277.273438 C 188.433594 277.285156 189.371094 277.292969 190.304688 277.292969 C 215.195312 277.292969 240.171875 272.777344 264.585938 263.871094 C 284.78125 256.5 304.632812 246.121094 323.585938 233.023438 C 355.4375 211.011719 373.777344 188.976562 374.953125 187.546875 Z M 187.542969 259.355469 L 187.453125 259.355469 C 170.882812 259.34375 155.613281 253.6875 143.449219 244.222656 L 162.453125 225.21875 C 169.628906 230.003906 178.246094 232.796875 187.503906 232.796875 C 212.480469 232.796875 232.796875 212.480469 232.796875 187.5 C 232.796875 178.242188 230.003906 169.628906 225.21875 162.449219 L 244.222656 143.445312 C 253.703125 155.617188 259.355469 170.910156 259.355469 187.5 C 259.355469 227.109375 227.148438 259.332031 187.542969 259.355469 Z M 214.882812 187.5 C 214.882812 202.597656 202.601562 214.878906 187.503906 214.878906 C 183.21875 214.878906 179.164062 213.882812 175.546875 212.125 L 212.125 175.546875 C 213.890625 179.160156 214.882812 183.214844 214.882812 187.5 Z M 313.402344 218.285156 C 297.988281 228.933594 277.453125 240.667969 253.019531 248.863281 C 268.679688 232.167969 277.273438 210.496094 277.273438 187.5 C 277.273438 166.53125 270.128906 146.667969 256.996094 130.675781 L 259.316406 128.355469 C 280.800781 136.296875 298.996094 146.796875 312.960938 156.402344 C 329.511719 167.789062 342.300781 179.332031 350.53125 187.5 C 342.398438 195.578125 329.792969 206.957031 313.402344 218.285156 Z M 313.402344 218.285156 " fill-opacity="1" fill-rule="nonzero"/></g></svg>