<svg xmlns="http://www.w3.org/2000/svg" xmlns:xlink="http://www.w3.org/1999/xlink" width="500" zoomAndPan="magnify" viewBox="0 0 375 374.999991" height="500" preserveAspectRatio="xMidYMid meet" version="1.0"><defs><clipPath id="a2c17103bd"><path d="M 1 59 L 374 59 L 374 316.59375 L 1 316.59375 Z M 1 59 " clip-rule="nonzero"/></clipPath><clipPath id="52184220f8"><path d="M 176.355469 176.355469 L 198.855469 176.355469 L 198.855469 198.855469 L 176.355469 198.855469 Z M 176.355469 176.355469 " clip-rule="nonzero"/></clipPath></defs><g clip-path="url(#a2c17103bd)"><path fill="#000000" d="M 187.5 59.160156 C 119.71875 59.160156 16.1875 167.316406 4.542969 179.667969 C 0 184.445312 0 191.90625 4.542969 196.683594 C 16.1875 209.039062 119.71875 317.191406 187.5 317.191406 C 255.28125 317.191406 358.8125 209.039062 370.457031 196.683594 C 375 191.90625 375 184.445312 370.457031 179.667969 C 358.8125 167.316406 255.28125 59.160156 187.5 59.160156 Z M 187.5 259.386719 C 148.253906 259.386719 116.34375 227.453125 116.34375 188.175781 C 116.34375 148.902344 148.253906 116.96875 187.5 116.96875 C 226.746094 116.96875 258.65625 148.902344 258.65625 188.175781 C 258.65625 227.453125 226.746094 259.386719 187.5 259.386719 Z M 187.5 259.386719 " fill-opacity="1" fill-rule="nonzero"/></g><path fill="#000000" d="M 187.5 141.90625 C 161.996094 141.90625 141.265625 162.652344 141.265625 188.175781 C 141.265625 213.699219 161.996094 234.445312 187.5 234.445312 C 213.003906 234.445312 233.734375 213.699219 233.734375 188.175781 C 233.734375 162.652344 213.003906 141.90625 187.5 141.90625 Z M 187.5 141.90625 " fill-opacity="1" fill-rule="nonzero"/><g clip-path="url(#52184220f8)"><path fill="#000000" d="M 187.605469 176.355469 C 193.820312 176.355469 198.855469 181.394531 198.855469 187.605469 C 198.855469 193.820312 193.820312 198.855469 187.605469 198.855469 C 181.394531 198.855469 176.355469 193.820312 176.355469 187.605469 C 176.355469 181.394531 181.394531 176.355469 187.605469 176.355469 Z M 187.605469 176.355469 " fill-opacity="1" fill-rule="evenodd"/></g></svg>