<svg xmlns="http://www.w3.org/2000/svg" xmlns:xlink="http://www.w3.org/1999/xlink" width="500" zoomAndPan="magnify" viewBox="0 0 375 374.999991" height="500" preserveAspectRatio="xMidYMid meet" version="1.0"><defs><clipPath id="85ed4ab6bf"><path d="M 7 9 L 368 9 L 368 369.09375 L 7 369.09375 Z M 7 9 " clip-rule="nonzero"/></clipPath></defs><g clip-path="url(#85ed4ab6bf)"><path fill="#ffffff" d="M 238.246094 189.34375 L 356.585938 71.003906 C 370.617188 56.984375 370.617188 34.234375 356.585938 20.199219 C 342.550781 6.175781 319.824219 6.175781 305.792969 20.199219 L 187.453125 138.539062 L 69.113281 20.210938 C 55.089844 6.175781 32.339844 6.175781 18.308594 20.210938 C 4.285156 34.234375 4.285156 56.984375 18.308594 71.015625 L 136.644531 189.34375 L 18.019531 307.96875 C 4 321.992188 4 344.742188 18.019531 358.765625 C 25.023438 365.78125 34.234375 369.289062 43.417969 369.289062 C 52.601562 369.289062 61.808594 365.78125 68.824219 358.765625 L 187.441406 240.148438 L 305.765625 358.476562 C 312.785156 365.492188 321.980469 369.003906 331.164062 369.003906 C 340.347656 369.003906 349.542969 365.492188 356.5625 358.476562 C 370.59375 344.457031 370.59375 321.703125 356.5625 307.683594 Z M 238.246094 189.34375 " fill-opacity="1" fill-rule="nonzero"/></g></svg>